<?xml version="1.0" encoding="utf-8"?>
<svg xmlns="http://www.w3.org/2000/svg" xmlns:xlink="http://www.w3.org/1999/xlink" width="672" height="480" viewBox="0 0 2688 1920">
<defs>
  <clipPath id="clip250">
    <rect x="0" y="0" width="2688" height="1920"/>
  </clipPath>
</defs>
<path clip-path="url(#clip250)" d="M0 1920 L2688 1920 L2688 0 L0 0  Z" fill="#ffffff" fill-rule="evenodd" fill-opacity="1"/>
<defs>
  <clipPath id="clip251">
    <rect x="537" y="0" width="1883" height="1883"/>
  </clipPath>
</defs>
<path clip-path="url(#clip250)" d="M216.487 1787.62 L2640.76 1787.62 L2640.76 47.2441 L216.487 47.2441  Z" fill="#ffffff" fill-rule="evenodd" fill-opacity="1"/>
<defs>
  <clipPath id="clip252">
    <rect x="216" y="47" width="2425" height="1741"/>
  </clipPath>
</defs>
<polyline clip-path="url(#clip252)" style="stroke:#000000; stroke-linecap:round; stroke-linejoin:round; stroke-width:2; stroke-opacity:0.1; fill:none" points="1128.3,1787.62 1128.3,47.2441 "/>
<polyline clip-path="url(#clip252)" style="stroke:#000000; stroke-linecap:round; stroke-linejoin:round; stroke-width:2; stroke-opacity:0.1; fill:none" points="2572.14,1787.62 2572.14,47.2441 "/>
<polyline clip-path="url(#clip252)" style="stroke:#000000; stroke-linecap:round; stroke-linejoin:round; stroke-width:2; stroke-opacity:0.1; fill:none" points="216.487,1478.54 2640.76,1478.54 "/>
<polyline clip-path="url(#clip252)" style="stroke:#000000; stroke-linecap:round; stroke-linejoin:round; stroke-width:2; stroke-opacity:0.1; fill:none" points="216.487,1133.03 2640.76,1133.03 "/>
<polyline clip-path="url(#clip252)" style="stroke:#000000; stroke-linecap:round; stroke-linejoin:round; stroke-width:2; stroke-opacity:0.1; fill:none" points="216.487,787.52 2640.76,787.52 "/>
<polyline clip-path="url(#clip252)" style="stroke:#000000; stroke-linecap:round; stroke-linejoin:round; stroke-width:2; stroke-opacity:0.1; fill:none" points="216.487,442.01 2640.76,442.01 "/>
<polyline clip-path="url(#clip252)" style="stroke:#000000; stroke-linecap:round; stroke-linejoin:round; stroke-width:2; stroke-opacity:0.1; fill:none" points="216.487,96.5 2640.76,96.5 "/>
<polyline clip-path="url(#clip250)" style="stroke:#000000; stroke-linecap:round; stroke-linejoin:round; stroke-width:4; stroke-opacity:1; fill:none" points="216.487,1787.62 2640.76,1787.62 "/>
<polyline clip-path="url(#clip250)" style="stroke:#000000; stroke-linecap:round; stroke-linejoin:round; stroke-width:4; stroke-opacity:1; fill:none" points="1128.3,1787.62 1128.3,1768.72 "/>
<polyline clip-path="url(#clip250)" style="stroke:#000000; stroke-linecap:round; stroke-linejoin:round; stroke-width:4; stroke-opacity:1; fill:none" points="2572.14,1787.62 2572.14,1768.72 "/>
<path clip-path="url(#clip250)" d="M1078.32 1864.05 L1085.96 1864.05 L1085.96 1837.68 L1077.65 1839.35 L1077.65 1835.09 L1085.92 1833.42 L1090.59 1833.42 L1090.59 1864.05 L1098.23 1864.05 L1098.23 1867.98 L1078.32 1867.98 L1078.32 1864.05 Z" fill="#000000" fill-rule="nonzero" fill-opacity="1" /><path clip-path="url(#clip250)" d="M1117.68 1836.5 Q1114.06 1836.5 1112.24 1840.07 Q1110.43 1843.61 1110.43 1850.74 Q1110.43 1857.84 1112.24 1861.41 Q1114.06 1864.95 1117.68 1864.95 Q1121.31 1864.95 1123.12 1861.41 Q1124.94 1857.84 1124.94 1850.74 Q1124.94 1843.61 1123.12 1840.07 Q1121.31 1836.5 1117.68 1836.5 M1117.68 1832.8 Q1123.49 1832.8 1126.54 1837.4 Q1129.62 1841.99 1129.62 1850.74 Q1129.62 1859.46 1126.54 1864.07 Q1123.49 1868.65 1117.68 1868.65 Q1111.87 1868.65 1108.79 1864.07 Q1105.73 1859.46 1105.73 1850.74 Q1105.73 1841.99 1108.79 1837.4 Q1111.87 1832.8 1117.68 1832.8 Z" fill="#000000" fill-rule="nonzero" fill-opacity="1" /><path clip-path="url(#clip250)" d="M1129.62 1826.9 L1153.73 1826.9 L1153.73 1830.1 L1129.62 1830.1 L1129.62 1826.9 Z" fill="#000000" fill-rule="nonzero" fill-opacity="1" /><path clip-path="url(#clip250)" d="M1161.97 1812.49 L1176.88 1812.49 L1176.88 1815.69 L1165.45 1815.69 L1165.45 1822.57 Q1166.28 1822.29 1167.1 1822.16 Q1167.93 1822.01 1168.76 1822.01 Q1173.46 1822.01 1176.21 1824.59 Q1178.95 1827.16 1178.95 1831.56 Q1178.95 1836.1 1176.13 1838.62 Q1173.31 1841.12 1168.18 1841.12 Q1166.41 1841.12 1164.56 1840.82 Q1162.74 1840.52 1160.78 1839.91 L1160.78 1836.1 Q1162.48 1837.02 1164.28 1837.47 Q1166.09 1837.92 1168.1 1837.92 Q1171.35 1837.92 1173.25 1836.21 Q1175.15 1834.5 1175.15 1831.56 Q1175.15 1828.63 1173.25 1826.92 Q1171.35 1825.21 1168.1 1825.21 Q1166.58 1825.21 1165.05 1825.54 Q1163.55 1825.88 1161.97 1826.6 L1161.97 1812.49 Z" fill="#000000" fill-rule="nonzero" fill-opacity="1" /><path clip-path="url(#clip250)" d="M2537.13 1864.05 L2544.77 1864.05 L2544.77 1837.68 L2536.46 1839.35 L2536.46 1835.09 L2544.72 1833.42 L2549.4 1833.42 L2549.4 1864.05 L2557.03 1864.05 L2557.03 1867.98 L2537.13 1867.98 L2537.13 1864.05 Z" fill="#000000" fill-rule="nonzero" fill-opacity="1" /><path clip-path="url(#clip250)" d="M2576.48 1836.5 Q2572.87 1836.5 2571.04 1840.07 Q2569.23 1843.61 2569.23 1850.74 Q2569.23 1857.84 2571.04 1861.41 Q2572.87 1864.95 2576.48 1864.95 Q2580.11 1864.95 2581.92 1861.41 Q2583.75 1857.84 2583.75 1850.74 Q2583.75 1843.61 2581.92 1840.07 Q2580.11 1836.5 2576.48 1836.5 M2576.48 1832.8 Q2582.29 1832.8 2585.34 1837.4 Q2588.42 1841.99 2588.42 1850.74 Q2588.42 1859.46 2585.34 1864.07 Q2582.29 1868.65 2576.48 1868.65 Q2570.67 1868.65 2567.59 1864.07 Q2564.53 1859.46 2564.53 1850.74 Q2564.53 1841.99 2567.59 1837.4 Q2570.67 1832.8 2576.48 1832.8 Z" fill="#000000" fill-rule="nonzero" fill-opacity="1" /><path clip-path="url(#clip250)" d="M2598.13 1814.99 Q2595.19 1814.99 2593.71 1817.89 Q2592.24 1820.77 2592.24 1826.56 Q2592.24 1832.33 2593.71 1835.23 Q2595.19 1838.11 2598.13 1838.11 Q2601.08 1838.11 2602.55 1835.23 Q2604.03 1832.33 2604.03 1826.56 Q2604.03 1820.77 2602.55 1817.89 Q2601.08 1814.99 2598.13 1814.99 M2598.13 1811.98 Q2602.85 1811.98 2605.33 1815.73 Q2607.83 1819.45 2607.83 1826.56 Q2607.83 1833.65 2605.33 1837.39 Q2602.85 1841.12 2598.13 1841.12 Q2593.41 1841.12 2590.91 1837.39 Q2588.42 1833.65 2588.42 1826.56 Q2588.42 1819.45 2590.91 1815.73 Q2593.41 1811.98 2598.13 1811.98 Z" fill="#000000" fill-rule="nonzero" fill-opacity="1" /><polyline clip-path="url(#clip250)" style="stroke:#000000; stroke-linecap:round; stroke-linejoin:round; stroke-width:4; stroke-opacity:1; fill:none" points="216.487,1787.62 216.487,47.2441 "/>
<polyline clip-path="url(#clip250)" style="stroke:#000000; stroke-linecap:round; stroke-linejoin:round; stroke-width:4; stroke-opacity:1; fill:none" points="216.487,1478.54 235.385,1478.54 "/>
<polyline clip-path="url(#clip250)" style="stroke:#000000; stroke-linecap:round; stroke-linejoin:round; stroke-width:4; stroke-opacity:1; fill:none" points="216.487,1133.03 235.385,1133.03 "/>
<polyline clip-path="url(#clip250)" style="stroke:#000000; stroke-linecap:round; stroke-linejoin:round; stroke-width:4; stroke-opacity:1; fill:none" points="216.487,787.52 235.385,787.52 "/>
<polyline clip-path="url(#clip250)" style="stroke:#000000; stroke-linecap:round; stroke-linejoin:round; stroke-width:4; stroke-opacity:1; fill:none" points="216.487,442.01 235.385,442.01 "/>
<polyline clip-path="url(#clip250)" style="stroke:#000000; stroke-linecap:round; stroke-linejoin:round; stroke-width:4; stroke-opacity:1; fill:none" points="216.487,96.5 235.385,96.5 "/>
<path clip-path="url(#clip250)" d="M50.2234 1498.33 L57.8623 1498.33 L57.8623 1471.97 L49.5521 1473.63 L49.5521 1469.37 L57.816 1467.71 L62.4919 1467.71 L62.4919 1498.33 L70.1307 1498.33 L70.1307 1502.27 L50.2234 1502.27 L50.2234 1498.33 Z" fill="#000000" fill-rule="nonzero" fill-opacity="1" /><path clip-path="url(#clip250)" d="M89.5751 1470.79 Q85.964 1470.79 84.1353 1474.35 Q82.3297 1477.89 82.3297 1485.02 Q82.3297 1492.13 84.1353 1495.69 Q85.964 1499.23 89.5751 1499.23 Q93.2093 1499.23 95.0148 1495.69 Q96.8435 1492.13 96.8435 1485.02 Q96.8435 1477.89 95.0148 1474.35 Q93.2093 1470.79 89.5751 1470.79 M89.5751 1467.08 Q95.3852 1467.08 98.4408 1471.69 Q101.519 1476.27 101.519 1485.02 Q101.519 1493.75 98.4408 1498.36 Q95.3852 1502.94 89.5751 1502.94 Q83.7649 1502.94 80.6862 1498.36 Q77.6307 1493.75 77.6307 1485.02 Q77.6307 1476.27 80.6862 1471.69 Q83.7649 1467.08 89.5751 1467.08 Z" fill="#000000" fill-rule="nonzero" fill-opacity="1" /><path clip-path="url(#clip250)" d="M101.519 1461.18 L125.631 1461.18 L125.631 1464.38 L101.519 1464.38 L101.519 1461.18 Z" fill="#000000" fill-rule="nonzero" fill-opacity="1" /><path clip-path="url(#clip250)" d="M137.104 1471.66 L150.363 1471.66 L150.363 1474.86 L132.533 1474.86 L132.533 1471.66 Q134.696 1469.42 138.42 1465.66 Q142.163 1461.88 143.122 1460.79 Q144.947 1458.74 145.661 1457.33 Q146.395 1455.9 146.395 1454.53 Q146.395 1452.29 144.815 1450.88 Q143.254 1449.47 140.734 1449.47 Q138.947 1449.47 136.953 1450.09 Q134.978 1450.71 132.722 1451.97 L132.722 1448.13 Q135.016 1447.21 137.01 1446.74 Q139.003 1446.27 140.658 1446.27 Q145.022 1446.27 147.617 1448.45 Q150.213 1450.63 150.213 1454.28 Q150.213 1456.01 149.554 1457.57 Q148.915 1459.11 147.204 1461.22 Q146.733 1461.77 144.213 1464.38 Q141.693 1466.98 137.104 1471.66 Z" fill="#000000" fill-rule="nonzero" fill-opacity="1" /><path clip-path="url(#clip250)" d="M166.463 1449.28 Q163.529 1449.28 162.043 1452.17 Q160.576 1455.05 160.576 1460.84 Q160.576 1466.62 162.043 1469.52 Q163.529 1472.39 166.463 1472.39 Q169.415 1472.39 170.882 1469.52 Q172.368 1466.62 172.368 1460.84 Q172.368 1455.05 170.882 1452.17 Q169.415 1449.28 166.463 1449.28 M166.463 1446.27 Q171.183 1446.27 173.666 1450.01 Q176.167 1453.74 176.167 1460.84 Q176.167 1467.94 173.666 1471.68 Q171.183 1475.4 166.463 1475.4 Q161.742 1475.4 159.24 1471.68 Q156.758 1467.94 156.758 1460.84 Q156.758 1453.74 159.24 1450.01 Q161.742 1446.27 166.463 1446.27 Z" fill="#000000" fill-rule="nonzero" fill-opacity="1" /><path clip-path="url(#clip250)" d="M51.0322 1152.82 L58.671 1152.82 L58.671 1126.46 L50.3609 1128.12 L50.3609 1123.86 L58.6247 1122.2 L63.3006 1122.2 L63.3006 1152.82 L70.9395 1152.82 L70.9395 1156.76 L51.0322 1156.76 L51.0322 1152.82 Z" fill="#000000" fill-rule="nonzero" fill-opacity="1" /><path clip-path="url(#clip250)" d="M90.3838 1125.28 Q86.7727 1125.28 84.944 1128.84 Q83.1385 1132.38 83.1385 1139.51 Q83.1385 1146.62 84.944 1150.18 Q86.7727 1153.72 90.3838 1153.72 Q94.018 1153.72 95.8236 1150.18 Q97.6523 1146.62 97.6523 1139.51 Q97.6523 1132.38 95.8236 1128.84 Q94.018 1125.28 90.3838 1125.28 M90.3838 1121.57 Q96.1939 1121.57 99.2495 1126.18 Q102.328 1130.76 102.328 1139.51 Q102.328 1148.24 99.2495 1152.85 Q96.1939 1157.43 90.3838 1157.43 Q84.5736 1157.43 81.495 1152.85 Q78.4394 1148.24 78.4394 1139.51 Q78.4394 1130.76 81.495 1126.18 Q84.5736 1121.57 90.3838 1121.57 Z" fill="#000000" fill-rule="nonzero" fill-opacity="1" /><path clip-path="url(#clip250)" d="M102.328 1115.67 L126.44 1115.67 L126.44 1118.87 L102.328 1118.87 L102.328 1115.67 Z" fill="#000000" fill-rule="nonzero" fill-opacity="1" /><path clip-path="url(#clip250)" d="M135.298 1126.15 L141.505 1126.15 L141.505 1104.73 L134.753 1106.08 L134.753 1102.62 L141.467 1101.27 L145.266 1101.27 L145.266 1126.15 L151.473 1126.15 L151.473 1129.35 L135.298 1129.35 L135.298 1126.15 Z" fill="#000000" fill-rule="nonzero" fill-opacity="1" /><path clip-path="url(#clip250)" d="M159.184 1101.27 L174.099 1101.27 L174.099 1104.46 L162.663 1104.46 L162.663 1111.35 Q163.491 1111.07 164.319 1110.93 Q165.146 1110.78 165.974 1110.78 Q170.676 1110.78 173.422 1113.36 Q176.167 1115.94 176.167 1120.34 Q176.167 1124.87 173.346 1127.39 Q170.525 1129.89 165.391 1129.89 Q163.623 1129.89 161.78 1129.59 Q159.955 1129.29 157.999 1128.69 L157.999 1124.87 Q159.692 1125.79 161.497 1126.24 Q163.303 1126.69 165.315 1126.69 Q168.569 1126.69 170.469 1124.98 Q172.368 1123.27 172.368 1120.34 Q172.368 1117.4 170.469 1115.69 Q168.569 1113.98 165.315 1113.98 Q163.792 1113.98 162.269 1114.32 Q160.764 1114.66 159.184 1115.37 L159.184 1101.27 Z" fill="#000000" fill-rule="nonzero" fill-opacity="1" /><path clip-path="url(#clip250)" d="M50.2234 807.312 L57.8623 807.312 L57.8623 780.947 L49.5521 782.613 L49.5521 778.354 L57.816 776.687 L62.4919 776.687 L62.4919 807.312 L70.1307 807.312 L70.1307 811.247 L50.2234 811.247 L50.2234 807.312 Z" fill="#000000" fill-rule="nonzero" fill-opacity="1" /><path clip-path="url(#clip250)" d="M89.5751 779.766 Q85.964 779.766 84.1353 783.331 Q82.3297 786.872 82.3297 794.002 Q82.3297 801.108 84.1353 804.673 Q85.964 808.215 89.5751 808.215 Q93.2093 808.215 95.0148 804.673 Q96.8435 801.108 96.8435 794.002 Q96.8435 786.872 95.0148 783.331 Q93.2093 779.766 89.5751 779.766 M89.5751 776.062 Q95.3852 776.062 98.4408 780.669 Q101.519 785.252 101.519 794.002 Q101.519 802.729 98.4408 807.335 Q95.3852 811.919 89.5751 811.919 Q83.7649 811.919 80.6862 807.335 Q77.6307 802.729 77.6307 794.002 Q77.6307 785.252 80.6862 780.669 Q83.7649 776.062 89.5751 776.062 Z" fill="#000000" fill-rule="nonzero" fill-opacity="1" /><path clip-path="url(#clip250)" d="M101.519 770.164 L125.631 770.164 L125.631 773.361 L101.519 773.361 L101.519 770.164 Z" fill="#000000" fill-rule="nonzero" fill-opacity="1" /><path clip-path="url(#clip250)" d="M134.489 780.64 L140.696 780.64 L140.696 759.218 L133.944 760.572 L133.944 757.111 L140.658 755.757 L144.458 755.757 L144.458 780.64 L150.664 780.64 L150.664 783.837 L134.489 783.837 L134.489 780.64 Z" fill="#000000" fill-rule="nonzero" fill-opacity="1" /><path clip-path="url(#clip250)" d="M166.463 758.258 Q163.529 758.258 162.043 761.155 Q160.576 764.032 160.576 769.825 Q160.576 775.599 162.043 778.495 Q163.529 781.373 166.463 781.373 Q169.415 781.373 170.882 778.495 Q172.368 775.599 172.368 769.825 Q172.368 764.032 170.882 761.155 Q169.415 758.258 166.463 758.258 M166.463 755.249 Q171.183 755.249 173.666 758.992 Q176.167 762.716 176.167 769.825 Q176.167 776.916 173.666 780.658 Q171.183 784.382 166.463 784.382 Q161.742 784.382 159.24 780.658 Q156.758 776.916 156.758 769.825 Q156.758 762.716 159.24 758.992 Q161.742 755.249 166.463 755.249 Z" fill="#000000" fill-rule="nonzero" fill-opacity="1" /><path clip-path="url(#clip250)" d="M75.5387 461.802 L83.1775 461.802 L83.1775 435.437 L74.8674 437.103 L74.8674 432.844 L83.1312 431.177 L87.8071 431.177 L87.8071 461.802 L95.446 461.802 L95.446 465.737 L75.5387 465.737 L75.5387 461.802 Z" fill="#000000" fill-rule="nonzero" fill-opacity="1" /><path clip-path="url(#clip250)" d="M114.89 434.256 Q111.279 434.256 109.451 437.821 Q107.645 441.363 107.645 448.492 Q107.645 455.599 109.451 459.163 Q111.279 462.705 114.89 462.705 Q118.525 462.705 120.33 459.163 Q122.159 455.599 122.159 448.492 Q122.159 441.363 120.33 437.821 Q118.525 434.256 114.89 434.256 M114.89 430.552 Q120.7 430.552 123.756 435.159 Q126.835 439.742 126.835 448.492 Q126.835 457.219 123.756 461.825 Q120.7 466.409 114.89 466.409 Q109.08 466.409 106.001 461.825 Q102.946 457.219 102.946 448.492 Q102.946 439.742 106.001 435.159 Q109.08 430.552 114.89 430.552 Z" fill="#000000" fill-rule="nonzero" fill-opacity="1" /><path clip-path="url(#clip250)" d="M126.835 424.654 L150.946 424.654 L150.946 427.851 L126.835 427.851 L126.835 424.654 Z" fill="#000000" fill-rule="nonzero" fill-opacity="1" /><path clip-path="url(#clip250)" d="M159.184 410.247 L174.099 410.247 L174.099 413.444 L162.663 413.444 L162.663 420.328 Q163.491 420.046 164.319 419.914 Q165.146 419.764 165.974 419.764 Q170.676 419.764 173.422 422.34 Q176.167 424.917 176.167 429.318 Q176.167 433.851 173.346 436.371 Q170.525 438.872 165.391 438.872 Q163.623 438.872 161.78 438.572 Q159.955 438.271 157.999 437.669 L157.999 433.851 Q159.692 434.772 161.497 435.224 Q163.303 435.675 165.315 435.675 Q168.569 435.675 170.469 433.964 Q172.368 432.252 172.368 429.318 Q172.368 426.384 170.469 424.673 Q168.569 422.961 165.315 422.961 Q163.792 422.961 162.269 423.3 Q160.764 423.638 159.184 424.353 L159.184 410.247 Z" fill="#000000" fill-rule="nonzero" fill-opacity="1" /><path clip-path="url(#clip250)" d="M105.462 116.292 L113.101 116.292 L113.101 89.9268 L104.791 91.5935 L104.791 87.3342 L113.054 85.6676 L117.73 85.6676 L117.73 116.292 L125.369 116.292 L125.369 120.228 L105.462 120.228 L105.462 116.292 Z" fill="#000000" fill-rule="nonzero" fill-opacity="1" /><path clip-path="url(#clip250)" d="M144.813 88.7463 Q141.202 88.7463 139.374 92.3111 Q137.568 95.8527 137.568 102.982 Q137.568 110.089 139.374 113.654 Q141.202 117.195 144.813 117.195 Q148.448 117.195 150.253 113.654 Q152.082 110.089 152.082 102.982 Q152.082 95.8527 150.253 92.3111 Q148.448 88.7463 144.813 88.7463 M144.813 85.0426 Q150.624 85.0426 153.679 89.649 Q156.758 94.2323 156.758 102.982 Q156.758 111.709 153.679 116.316 Q150.624 120.899 144.813 120.899 Q139.003 120.899 135.925 116.316 Q132.869 111.709 132.869 102.982 Q132.869 94.2323 135.925 89.649 Q139.003 85.0426 144.813 85.0426 Z" fill="#000000" fill-rule="nonzero" fill-opacity="1" /><path clip-path="url(#clip250)" d="M166.463 67.2386 Q163.529 67.2386 162.043 70.135 Q160.576 73.0126 160.576 78.8054 Q160.576 84.5794 162.043 87.4758 Q163.529 90.3534 166.463 90.3534 Q169.415 90.3534 170.882 87.4758 Q172.368 84.5794 172.368 78.8054 Q172.368 73.0126 170.882 70.135 Q169.415 67.2386 166.463 67.2386 M166.463 64.2294 Q171.183 64.2294 173.666 67.9721 Q176.167 71.6961 176.167 78.8054 Q176.167 85.8959 173.666 89.6387 Q171.183 93.3626 166.463 93.3626 Q161.742 93.3626 159.24 89.6387 Q156.758 85.8959 156.758 78.8054 Q156.758 71.6961 159.24 67.9721 Q161.742 64.2294 166.463 64.2294 Z" fill="#000000" fill-rule="nonzero" fill-opacity="1" /><polyline clip-path="url(#clip252)" style="stroke:#add8e6; stroke-linecap:round; stroke-linejoin:round; stroke-width:12; stroke-opacity:1; fill:none" points="285.099,1178.19 308.2,1161.4 331.302,1198.99 354.403,1157.39 377.505,1219.8 400.606,1219.8 423.708,1198.99 446.809,1198.99 469.911,1219.8 516.114,1198.99 539.215,1186.83 562.317,1186.83 585.418,1198.99 608.519,1178.19 631.621,1178.19 654.722,1198.99 677.824,1198.99 700.925,1198.99 724.027,1186.83 747.128,1198.99 770.23,1186.83 793.331,1171.5 816.433,1219.8 839.534,1219.8 862.636,1186.83 908.839,1186.83 931.94,1219.8 978.143,1219.8 1001.24,1186.83 1024.35,1171.5 1047.45,1171.5 1070.55,1198.99 1093.65,1166.02 1116.75,1198.99 1139.85,1166.02 1162.95,1178.19 1186.06,1178.19 1209.16,1219.8 1232.26,1157.39 1255.36,1157.39 1278.46,1127.03 1301.56,1109.09 1324.67,1093.17 1347.77,1077.66 1370.87,1060.2 1393.97,1044.78 1417.07,1027.97 1440.17,1011.31 1463.27,994.816 1486.38,978.266 1509.48,961.713 1532.58,945.13 1555.68,928.538 1578.78,911.957 1601.88,895.373 1624.98,878.79 1648.09,862.208 1671.19,845.626 1694.29,829.046 1717.39,812.466 1740.49,795.887 1763.59,779.309 1786.69,762.733 1809.8,746.159 1832.9,729.586 1856,713.016 1879.1,696.449 1902.2,679.885 1925.3,663.326 1948.4,646.771 1971.51,630.223 1994.61,613.683 2017.71,597.151 2040.81,580.63 2063.91,564.122 2087.01,547.63 2110.12,531.157 2133.22,514.708 2156.32,498.287 2179.42,481.9 2202.52,465.556 2225.62,449.264 2248.72,433.036 2271.83,416.888 2294.93,400.839 2318.03,384.915 2341.13,369.148 2364.23,353.585 2387.33,338.285 2410.43,323.336 2433.54,308.861 2456.64,295.049 2479.74,282.204 2502.84,270.861 2525.94,262.095 2549.04,258.668 2572.14,273.39 "/>
<polyline clip-path="url(#clip252)" style="stroke:#000000; stroke-linecap:round; stroke-linejoin:round; stroke-width:8; stroke-opacity:1; fill:none" stroke-dasharray="32, 20" points="285.099,1738.36 308.2,1721.78 331.302,1705.19 354.403,1688.61 377.505,1672.02 400.606,1655.44 423.708,1638.86 446.809,1622.27 469.911,1605.69 516.114,1572.52 539.215,1555.93 562.317,1539.35 585.418,1522.76 608.519,1506.18 631.621,1489.6 654.722,1473.01 677.824,1456.43 700.925,1439.84 724.027,1423.26 747.128,1406.67 770.23,1390.09 793.331,1373.5 816.433,1356.92 839.534,1340.34 862.636,1323.75 908.839,1290.58 931.94,1274 978.143,1240.83 1001.24,1224.24 1024.35,1207.66 1047.45,1191.08 1070.55,1174.49 1093.65,1157.91 1116.75,1141.32 1139.85,1124.74 1162.95,1108.15 1186.06,1091.57 1209.16,1074.98 1232.26,1058.4 1255.36,1041.81 1278.46,1025.23 1301.56,1008.65 1324.67,992.062 1347.77,975.477 1370.87,958.893 1393.97,942.308 1417.07,925.724 1440.17,909.139 1463.27,892.555 1486.38,875.97 1509.48,859.386 1532.58,842.801 1555.68,826.217 1578.78,809.632 1601.88,793.048 1624.98,776.463 1648.09,759.879 1671.19,743.294 1694.29,726.71 1717.39,710.125 1740.49,693.541 1763.59,676.957 1786.69,660.372 1809.8,643.788 1832.9,627.203 1856,610.619 1879.1,594.034 1902.2,577.45 1925.3,560.865 1948.4,544.281 1971.51,527.696 1994.61,511.112 2017.71,494.527 2040.81,477.943 2063.91,461.358 2087.01,444.774 2110.12,428.189 2133.22,411.605 2156.32,395.021 2179.42,378.436 2202.52,361.852 2225.62,345.267 2248.72,328.683 2271.83,312.098 2294.93,295.514 2318.03,278.929 2341.13,262.345 2364.23,245.76 2387.33,229.176 2410.43,212.591 2433.54,196.007 2456.64,179.422 2479.74,162.838 2502.84,146.253 2525.94,129.669 2549.04,113.084 2572.14,96.5 "/>
<polyline clip-path="url(#clip252)" style="stroke:#0000ff; stroke-linecap:round; stroke-linejoin:round; stroke-width:8; stroke-opacity:1; fill:none" stroke-dasharray="4, 8" points="285.099,1424.53 308.2,1413.79 331.302,1403.04 354.403,1392.3 377.505,1381.55 400.606,1370.81 423.708,1360.06 446.809,1349.32 469.911,1338.57 516.114,1317.08 539.215,1306.34 562.317,1295.59 585.418,1284.85 608.519,1274.1 631.621,1263.36 654.722,1252.61 677.824,1241.87 700.925,1231.12 724.027,1220.38 747.128,1209.63 770.23,1198.89 793.331,1188.14 816.433,1177.4 839.534,1166.65 862.636,1155.91 908.839,1134.42 931.94,1123.67 978.143,1102.18 1001.24,1091.44 1024.35,1080.69 1047.45,1069.95 1070.55,1059.2 1093.65,1048.46 1116.75,1037.71 1139.85,1026.97 1162.95,1016.22 1186.06,1005.48 1209.16,994.734 1232.26,983.989 1255.36,973.245 1278.46,962.5 1301.56,951.755 1324.67,941.01 1347.77,930.265 1370.87,919.52 1393.97,908.775 1417.07,898.03 1440.17,887.285 1463.27,876.54 1486.38,865.795 1509.48,855.05 1532.58,844.306 1555.68,833.561 1578.78,822.816 1601.88,812.071 1624.98,801.326 1648.09,790.581 1671.19,779.836 1694.29,769.091 1717.39,758.346 1740.49,747.601 1763.59,736.856 1786.69,726.112 1809.8,715.367 1832.9,704.622 1856,693.877 1879.1,683.132 1902.2,672.387 1925.3,661.642 1948.4,650.897 1971.51,640.152 1994.61,629.407 2017.71,618.662 2040.81,607.918 2063.91,597.173 2087.01,586.428 2110.12,575.683 2133.22,564.938 2156.32,554.193 2179.42,543.448 2202.52,532.703 2225.62,521.958 2248.72,511.213 2271.83,500.468 2294.93,489.724 2318.03,478.979 2341.13,468.234 2364.23,457.489 2387.33,446.744 2410.43,435.999 2433.54,425.254 2456.64,414.509 2479.74,403.764 2502.84,393.019 2525.94,382.274 2549.04,371.53 2572.14,360.785 "/>
<path clip-path="url(#clip250)" d="M297.296 312.617 L956.064 312.617 L956.064 105.257 L297.296 105.257  Z" fill="#ffffff" fill-rule="evenodd" fill-opacity="1"/>
<polyline clip-path="url(#clip250)" style="stroke:#000000; stroke-linecap:round; stroke-linejoin:round; stroke-width:4; stroke-opacity:1; fill:none" points="297.296,312.617 956.064,312.617 956.064,105.257 297.296,105.257 297.296,312.617 "/>
<polyline clip-path="url(#clip250)" style="stroke:#add8e6; stroke-linecap:round; stroke-linejoin:round; stroke-width:12; stroke-opacity:1; fill:none" points="324.233,157.097 485.851,157.097 "/>
<path clip-path="url(#clip250)" d="M547.569 137.655 L546.609 145.946 Q546.539 146.696 546.422 146.93 Q546.304 147.141 545.93 147.141 Q545.649 147.141 545.485 146.977 Q545.344 146.789 545.344 146.578 Q545.344 146.461 545.368 146.157 Q545.391 145.852 545.391 145.712 Q545.602 144.26 545.602 143.159 Q545.602 141.121 544.993 140.02 Q544.384 138.896 542.815 138.381 Q541.245 137.842 538.294 137.842 L531.548 137.842 Q530.002 137.842 529.628 138.123 Q529.276 138.404 528.948 139.716 L526.067 151.263 L530.588 151.263 Q532.274 151.263 533.282 151.052 Q534.312 150.841 534.991 150.256 Q535.694 149.647 536.069 148.827 Q536.467 148.007 536.865 146.532 Q536.982 146.04 537.099 145.852 Q537.24 145.665 537.544 145.665 Q537.779 145.665 537.943 145.829 Q538.107 145.969 538.107 146.18 L535.366 157.4 Q535.226 157.962 535.085 158.173 Q534.945 158.36 534.664 158.36 Q534.359 158.36 534.195 158.196 Q534.031 158.032 534.031 157.845 Q534.031 157.657 534.172 157.306 Q534.523 155.783 534.523 154.964 Q534.523 154.495 534.476 154.261 Q534.453 154.027 534.242 153.699 Q534.055 153.348 533.633 153.184 Q533.211 153.02 532.415 152.903 Q531.619 152.762 530.424 152.762 L525.693 152.762 L522.414 165.855 Q522.179 166.722 522.179 166.956 Q522.179 167.214 522.296 167.307 Q522.437 167.378 522.812 167.424 Q523.233 167.495 523.866 167.495 L530.869 167.495 Q532.415 167.495 533.656 167.354 Q534.898 167.214 535.928 166.862 Q536.982 166.511 537.779 166.113 Q538.575 165.715 539.325 164.989 Q540.074 164.239 540.589 163.583 Q541.128 162.904 541.761 161.756 Q542.393 160.609 542.838 159.672 Q543.283 158.711 543.962 157.165 Q544.15 156.603 544.595 156.603 Q544.852 156.603 544.993 156.744 Q545.133 156.861 545.157 156.978 L545.157 157.119 Q545.016 157.564 544.923 157.798 L540.519 168.151 Q540.261 168.736 540.051 168.853 Q539.84 168.97 539.02 168.97 L514.122 168.97 Q513.56 168.97 513.326 168.947 Q513.115 168.923 512.951 168.806 Q512.787 168.666 512.787 168.385 Q512.787 167.94 512.974 167.752 Q513.162 167.542 513.373 167.518 Q513.583 167.495 514.122 167.495 Q515.293 167.495 515.996 167.424 Q516.699 167.354 517.144 167.26 Q517.612 167.143 517.846 166.815 Q518.104 166.488 518.221 166.206 Q518.338 165.902 518.502 165.223 L524.826 139.856 Q525.06 138.99 525.06 138.709 Q525.06 138.404 524.85 138.217 Q524.662 138.029 524.147 137.959 Q523.632 137.865 523.21 137.865 Q522.812 137.842 521.945 137.842 Q521.383 137.842 521.149 137.818 Q520.938 137.795 520.774 137.678 Q520.61 137.561 520.61 137.303 Q520.61 136.647 520.891 136.507 Q521.196 136.343 522.039 136.343 L546.258 136.343 Q547.218 136.343 547.429 136.554 Q547.663 136.741 547.569 137.655 Z" fill="#000000" fill-rule="nonzero" fill-opacity="1" /><path clip-path="url(#clip250)" d="M552.449 156.978 Q552.449 148.874 555.471 142.339 Q556.759 139.599 558.563 137.303 Q560.366 135.008 561.561 134.001 Q562.755 132.993 563.083 132.993 Q563.552 132.993 563.575 133.462 Q563.575 133.696 562.943 134.282 Q555.213 142.152 555.237 156.978 Q555.237 171.851 562.755 179.417 Q563.575 180.237 563.575 180.494 Q563.575 180.963 563.083 180.963 Q562.755 180.963 561.608 180.002 Q560.46 179.042 558.68 176.84 Q556.9 174.639 555.611 171.945 Q552.449 165.41 552.449 156.978 Z" fill="#000000" fill-rule="nonzero" fill-opacity="1" /><path clip-path="url(#clip250)" d="M581.954 148.827 Q581.954 149.483 581.65 149.647 Q581.345 149.787 580.502 149.787 L576.005 149.787 L572.445 163.935 Q572.164 165.176 572.164 166.23 Q572.164 167.401 572.515 167.916 Q572.89 168.432 573.663 168.432 Q575.185 168.432 576.825 167.05 Q578.488 165.668 579.893 162.295 Q580.081 161.85 580.174 161.756 Q580.291 161.639 580.596 161.639 Q581.181 161.639 581.181 162.108 Q581.181 162.272 580.854 163.021 Q580.549 163.771 579.87 164.871 Q579.214 165.972 578.347 167.003 Q577.504 168.033 576.216 168.783 Q574.928 169.509 573.546 169.509 Q571.602 169.509 570.36 168.268 Q569.142 167.026 569.142 165.082 Q569.142 164.45 569.634 162.435 Q570.126 160.398 572.796 149.787 L568.557 149.787 Q567.971 149.787 567.737 149.764 Q567.526 149.741 567.362 149.623 Q567.222 149.483 567.222 149.202 Q567.222 148.757 567.409 148.569 Q567.596 148.359 567.831 148.335 Q568.088 148.288 568.674 148.288 L573.171 148.288 L575.045 140.676 Q575.232 139.927 575.701 139.505 Q576.193 139.06 576.474 139.013 Q576.755 138.943 576.965 138.943 Q577.598 138.943 577.973 139.294 Q578.347 139.622 578.347 140.231 Q578.347 140.559 576.38 148.288 L580.596 148.288 Q581.135 148.288 581.345 148.312 Q581.58 148.335 581.767 148.452 Q581.954 148.569 581.954 148.827 Z" fill="#000000" fill-rule="nonzero" fill-opacity="1" /><path clip-path="url(#clip250)" d="M585.71 180.494 Q585.71 180.26 586.319 179.674 Q594.048 171.804 594.048 156.978 Q594.048 142.105 586.624 134.586 Q585.71 133.72 585.71 133.462 Q585.71 132.993 586.179 132.993 Q586.506 132.993 587.654 133.954 Q588.825 134.914 590.582 137.116 Q592.362 139.318 593.674 142.011 Q596.836 148.546 596.836 156.978 Q596.836 165.082 593.814 171.617 Q592.526 174.357 590.723 176.653 Q588.919 178.948 587.724 179.955 Q586.53 180.963 586.179 180.963 Q585.71 180.963 585.71 180.494 Z" fill="#000000" fill-rule="nonzero" fill-opacity="1" /><polyline clip-path="url(#clip250)" style="stroke:#000000; stroke-linecap:round; stroke-linejoin:round; stroke-width:8; stroke-opacity:1; fill:none" stroke-dasharray="32, 20" points="324.233,208.937 485.851,208.937 "/>
<path clip-path="url(#clip250)" d="M531.213 201.055 L531.213 205.082 Q529.407 204.157 527.463 203.694 Q525.518 203.231 523.435 203.231 Q520.264 203.231 518.667 204.203 Q517.092 205.175 517.092 207.119 Q517.092 208.601 518.227 209.457 Q519.361 210.291 522.787 211.055 L524.245 211.379 Q528.782 212.351 530.68 214.133 Q532.602 215.893 532.602 219.064 Q532.602 222.675 529.731 224.781 Q526.884 226.888 521.884 226.888 Q519.801 226.888 517.532 226.471 Q515.287 226.078 512.787 225.268 L512.787 220.869 Q515.148 222.096 517.44 222.721 Q519.731 223.323 521.977 223.323 Q524.986 223.323 526.606 222.305 Q528.227 221.263 528.227 219.388 Q528.227 217.652 527.046 216.726 Q525.889 215.8 521.93 214.943 L520.449 214.596 Q516.491 213.763 514.731 212.05 Q512.972 210.314 512.972 207.305 Q512.972 203.647 515.565 201.657 Q518.157 199.666 522.926 199.666 Q525.287 199.666 527.37 200.013 Q529.454 200.36 531.213 201.055 Z" fill="#000000" fill-rule="nonzero" fill-opacity="1" /><path clip-path="url(#clip250)" d="M539.384 190.198 L543.643 190.198 L543.643 226.217 L539.384 226.217 L539.384 190.198 Z" fill="#000000" fill-rule="nonzero" fill-opacity="1" /><path clip-path="url(#clip250)" d="M562.602 203.277 Q559.176 203.277 557.185 205.962 Q555.194 208.624 555.194 213.277 Q555.194 217.93 557.162 220.615 Q559.152 223.277 562.602 223.277 Q566.004 223.277 567.995 220.592 Q569.986 217.906 569.986 213.277 Q569.986 208.67 567.995 205.985 Q566.004 203.277 562.602 203.277 M562.602 199.666 Q568.157 199.666 571.328 203.277 Q574.5 206.888 574.5 213.277 Q574.5 219.643 571.328 223.277 Q568.157 226.888 562.602 226.888 Q557.023 226.888 553.852 223.277 Q550.703 219.643 550.703 213.277 Q550.703 206.888 553.852 203.277 Q557.023 199.666 562.602 199.666 Z" fill="#000000" fill-rule="nonzero" fill-opacity="1" /><path clip-path="url(#clip250)" d="M585.68 222.328 L585.68 236.078 L581.398 236.078 L581.398 200.291 L585.68 200.291 L585.68 204.226 Q587.023 201.911 589.06 200.8 Q591.12 199.666 593.967 199.666 Q598.689 199.666 601.629 203.416 Q604.592 207.166 604.592 213.277 Q604.592 219.388 601.629 223.138 Q598.689 226.888 593.967 226.888 Q591.12 226.888 589.06 225.777 Q587.023 224.643 585.68 222.328 M600.171 213.277 Q600.171 208.578 598.226 205.916 Q596.305 203.231 592.925 203.231 Q589.546 203.231 587.601 205.916 Q585.68 208.578 585.68 213.277 Q585.68 217.976 587.601 220.661 Q589.546 223.323 592.925 223.323 Q596.305 223.323 598.226 220.661 Q600.171 217.976 600.171 213.277 Z" fill="#000000" fill-rule="nonzero" fill-opacity="1" /><path clip-path="url(#clip250)" d="M633.828 212.189 L633.828 214.272 L614.245 214.272 Q614.523 218.67 616.884 220.985 Q619.268 223.277 623.504 223.277 Q625.958 223.277 628.249 222.675 Q630.564 222.073 632.833 220.869 L632.833 224.897 Q630.541 225.869 628.134 226.379 Q625.726 226.888 623.249 226.888 Q617.046 226.888 613.411 223.277 Q609.8 219.666 609.8 213.508 Q609.8 207.143 613.226 203.416 Q616.675 199.666 622.509 199.666 Q627.74 199.666 630.772 203.045 Q633.828 206.402 633.828 212.189 M629.569 210.939 Q629.522 207.444 627.601 205.36 Q625.703 203.277 622.555 203.277 Q618.99 203.277 616.837 205.291 Q614.708 207.305 614.384 210.962 L629.569 210.939 Z" fill="#000000" fill-rule="nonzero" fill-opacity="1" /><path clip-path="url(#clip250)" d="M672.416 201.055 L672.416 205.082 Q670.61 204.157 668.666 203.694 Q666.721 203.231 664.638 203.231 Q661.467 203.231 659.869 204.203 Q658.295 205.175 658.295 207.119 Q658.295 208.601 659.43 209.457 Q660.564 210.291 663.99 211.055 L665.448 211.379 Q669.985 212.351 671.883 214.133 Q673.805 215.893 673.805 219.064 Q673.805 222.675 670.934 224.781 Q668.087 226.888 663.087 226.888 Q661.004 226.888 658.735 226.471 Q656.49 226.078 653.99 225.268 L653.99 220.869 Q656.351 222.096 658.643 222.721 Q660.934 223.323 663.18 223.323 Q666.189 223.323 667.809 222.305 Q669.43 221.263 669.43 219.388 Q669.43 217.652 668.249 216.726 Q667.092 215.8 663.133 214.943 L661.652 214.596 Q657.694 213.763 655.934 212.05 Q654.175 210.314 654.175 207.305 Q654.175 203.647 656.768 201.657 Q659.36 199.666 664.129 199.666 Q666.49 199.666 668.573 200.013 Q670.656 200.36 672.416 201.055 Z" fill="#000000" fill-rule="nonzero" fill-opacity="1" /><path clip-path="url(#clip250)" d="M681.143 204.689 L710.818 204.689 L710.818 208.578 L681.143 208.578 L681.143 204.689 M681.143 214.133 L710.818 214.133 L710.818 218.068 L681.143 218.068 L681.143 214.133 Z" fill="#000000" fill-rule="nonzero" fill-opacity="1" /><path clip-path="url(#clip250)" d="M735.077 207.582 Q738.434 208.3 740.309 210.569 Q742.207 212.837 742.207 216.17 Q742.207 221.286 738.689 224.087 Q735.17 226.888 728.689 226.888 Q726.513 226.888 724.198 226.448 Q721.906 226.031 719.453 225.175 L719.453 220.661 Q721.397 221.795 723.712 222.374 Q726.027 222.953 728.55 222.953 Q732.948 222.953 735.239 221.217 Q737.554 219.481 737.554 216.17 Q737.554 213.115 735.402 211.402 Q733.272 209.666 729.452 209.666 L725.425 209.666 L725.425 205.823 L729.638 205.823 Q733.087 205.823 734.915 204.457 Q736.744 203.069 736.744 200.476 Q736.744 197.814 734.846 196.402 Q732.971 194.967 729.452 194.967 Q727.531 194.967 725.332 195.383 Q723.133 195.8 720.494 196.68 L720.494 192.513 Q723.156 191.772 725.471 191.402 Q727.809 191.032 729.869 191.032 Q735.193 191.032 738.295 193.462 Q741.397 195.87 741.397 199.99 Q741.397 202.86 739.753 204.851 Q738.11 206.819 735.077 207.582 Z" fill="#000000" fill-rule="nonzero" fill-opacity="1" /><path clip-path="url(#clip250)" d="M751.073 220.337 L755.957 220.337 L755.957 226.217 L751.073 226.217 L751.073 220.337 Z" fill="#000000" fill-rule="nonzero" fill-opacity="1" /><path clip-path="url(#clip250)" d="M776.142 194.735 Q772.531 194.735 770.702 198.3 Q768.897 201.842 768.897 208.971 Q768.897 216.078 770.702 219.643 Q772.531 223.184 776.142 223.184 Q779.776 223.184 781.582 219.643 Q783.411 216.078 783.411 208.971 Q783.411 201.842 781.582 198.3 Q779.776 194.735 776.142 194.735 M776.142 191.032 Q781.952 191.032 785.008 195.638 Q788.086 200.221 788.086 208.971 Q788.086 217.698 785.008 222.305 Q781.952 226.888 776.142 226.888 Q770.332 226.888 767.253 222.305 Q764.198 217.698 764.198 208.971 Q764.198 200.221 767.253 195.638 Q770.332 191.032 776.142 191.032 Z" fill="#000000" fill-rule="nonzero" fill-opacity="1" /><polyline clip-path="url(#clip250)" style="stroke:#0000ff; stroke-linecap:round; stroke-linejoin:round; stroke-width:8; stroke-opacity:1; fill:none" stroke-dasharray="4, 8" points="324.233,260.777 485.851,260.777 "/>
<path clip-path="url(#clip250)" d="M531.56 265.117 Q531.56 260.418 529.616 257.756 Q527.694 255.071 524.315 255.071 Q520.935 255.071 518.991 257.756 Q517.069 260.418 517.069 265.117 Q517.069 269.816 518.991 272.501 Q520.935 275.163 524.315 275.163 Q527.694 275.163 529.616 272.501 Q531.56 269.816 531.56 265.117 M517.069 256.066 Q518.412 253.751 520.449 252.64 Q522.509 251.506 525.356 251.506 Q530.079 251.506 533.018 255.256 Q535.981 259.006 535.981 265.117 Q535.981 271.228 533.018 274.978 Q530.079 278.728 525.356 278.728 Q522.509 278.728 520.449 277.617 Q518.412 276.483 517.069 274.168 L517.069 278.057 L512.787 278.057 L512.787 242.038 L517.069 242.038 L517.069 256.066 Z" fill="#000000" fill-rule="nonzero" fill-opacity="1" /><path clip-path="url(#clip250)" d="M565.217 264.029 L565.217 266.112 L545.634 266.112 Q545.912 270.51 548.273 272.825 Q550.657 275.117 554.893 275.117 Q557.347 275.117 559.639 274.515 Q561.953 273.913 564.222 272.709 L564.222 276.737 Q561.93 277.709 559.523 278.219 Q557.115 278.728 554.639 278.728 Q548.435 278.728 544.801 275.117 Q541.19 271.506 541.19 265.348 Q541.19 258.983 544.615 255.256 Q548.065 251.506 553.898 251.506 Q559.129 251.506 562.162 254.885 Q565.217 258.242 565.217 264.029 M560.958 262.779 Q560.912 259.284 558.99 257.2 Q557.092 255.117 553.944 255.117 Q550.379 255.117 548.227 257.131 Q546.097 259.145 545.773 262.802 L560.958 262.779 Z" fill="#000000" fill-rule="nonzero" fill-opacity="1" /><path clip-path="url(#clip250)" d="M588.736 252.895 L588.736 256.922 Q586.93 255.997 584.986 255.534 Q583.041 255.071 580.958 255.071 Q577.787 255.071 576.189 256.043 Q574.615 257.015 574.615 258.959 Q574.615 260.441 575.75 261.297 Q576.884 262.131 580.31 262.895 L581.768 263.219 Q586.305 264.191 588.203 265.973 Q590.125 267.733 590.125 270.904 Q590.125 274.515 587.254 276.621 Q584.407 278.728 579.407 278.728 Q577.324 278.728 575.055 278.311 Q572.81 277.918 570.31 277.108 L570.31 272.709 Q572.671 273.936 574.963 274.561 Q577.254 275.163 579.5 275.163 Q582.509 275.163 584.129 274.145 Q585.75 273.103 585.75 271.228 Q585.75 269.492 584.569 268.566 Q583.412 267.64 579.453 266.783 L577.972 266.436 Q574.013 265.603 572.254 263.89 Q570.495 262.154 570.495 259.145 Q570.495 255.487 573.088 253.497 Q575.68 251.506 580.449 251.506 Q582.81 251.506 584.893 251.853 Q586.976 252.2 588.736 252.895 Z" fill="#000000" fill-rule="nonzero" fill-opacity="1" /><path clip-path="url(#clip250)" d="M601.12 244.77 L601.12 252.131 L609.893 252.131 L609.893 255.441 L601.12 255.441 L601.12 269.515 Q601.12 272.686 601.976 273.589 Q602.856 274.492 605.518 274.492 L609.893 274.492 L609.893 278.057 L605.518 278.057 Q600.587 278.057 598.712 276.228 Q596.837 274.376 596.837 269.515 L596.837 255.441 L593.712 255.441 L593.712 252.131 L596.837 252.131 L596.837 244.77 L601.12 244.77 Z" fill="#000000" fill-rule="nonzero" fill-opacity="1" /><path clip-path="url(#clip250)" d="M647.092 252.895 L647.092 256.922 Q645.286 255.997 643.342 255.534 Q641.397 255.071 639.314 255.071 Q636.143 255.071 634.546 256.043 Q632.971 257.015 632.971 258.959 Q632.971 260.441 634.106 261.297 Q635.24 262.131 638.666 262.895 L640.124 263.219 Q644.661 264.191 646.559 265.973 Q648.481 267.733 648.481 270.904 Q648.481 274.515 645.61 276.621 Q642.763 278.728 637.763 278.728 Q635.68 278.728 633.411 278.311 Q631.166 277.918 628.666 277.108 L628.666 272.709 Q631.027 273.936 633.319 274.561 Q635.61 275.163 637.856 275.163 Q640.865 275.163 642.485 274.145 Q644.106 273.103 644.106 271.228 Q644.106 269.492 642.925 268.566 Q641.768 267.64 637.809 266.783 L636.328 266.436 Q632.37 265.603 630.61 263.89 Q628.851 262.154 628.851 259.145 Q628.851 255.487 631.444 253.497 Q634.036 251.506 638.805 251.506 Q641.166 251.506 643.249 251.853 Q645.333 252.2 647.092 252.895 Z" fill="#000000" fill-rule="nonzero" fill-opacity="1" /><path clip-path="url(#clip250)" d="M655.263 242.038 L659.522 242.038 L659.522 278.057 L655.263 278.057 L655.263 242.038 Z" fill="#000000" fill-rule="nonzero" fill-opacity="1" /><path clip-path="url(#clip250)" d="M678.481 255.117 Q675.055 255.117 673.064 257.802 Q671.073 260.464 671.073 265.117 Q671.073 269.77 673.041 272.455 Q675.031 275.117 678.481 275.117 Q681.883 275.117 683.874 272.432 Q685.865 269.746 685.865 265.117 Q685.865 260.51 683.874 257.825 Q681.883 255.117 678.481 255.117 M678.481 251.506 Q684.036 251.506 687.207 255.117 Q690.379 258.728 690.379 265.117 Q690.379 271.483 687.207 275.117 Q684.036 278.728 678.481 278.728 Q672.902 278.728 669.731 275.117 Q666.582 271.483 666.582 265.117 Q666.582 258.728 669.731 255.117 Q672.902 251.506 678.481 251.506 Z" fill="#000000" fill-rule="nonzero" fill-opacity="1" /><path clip-path="url(#clip250)" d="M701.559 274.168 L701.559 287.918 L697.277 287.918 L697.277 252.131 L701.559 252.131 L701.559 256.066 Q702.902 253.751 704.939 252.64 Q706.999 251.506 709.846 251.506 Q714.568 251.506 717.508 255.256 Q720.471 259.006 720.471 265.117 Q720.471 271.228 717.508 274.978 Q714.568 278.728 709.846 278.728 Q706.999 278.728 704.939 277.617 Q702.902 276.483 701.559 274.168 M716.05 265.117 Q716.05 260.418 714.105 257.756 Q712.184 255.071 708.804 255.071 Q705.425 255.071 703.48 257.756 Q701.559 260.418 701.559 265.117 Q701.559 269.816 703.48 272.501 Q705.425 275.163 708.804 275.163 Q712.184 275.163 714.105 272.501 Q716.05 269.816 716.05 265.117 Z" fill="#000000" fill-rule="nonzero" fill-opacity="1" /><path clip-path="url(#clip250)" d="M749.707 264.029 L749.707 266.112 L730.124 266.112 Q730.402 270.51 732.763 272.825 Q735.147 275.117 739.383 275.117 Q741.837 275.117 744.128 274.515 Q746.443 273.913 748.712 272.709 L748.712 276.737 Q746.42 277.709 744.013 278.219 Q741.605 278.728 739.128 278.728 Q732.925 278.728 729.29 275.117 Q725.679 271.506 725.679 265.348 Q725.679 258.983 729.105 255.256 Q732.554 251.506 738.388 251.506 Q743.619 251.506 746.651 254.885 Q749.707 258.242 749.707 264.029 M745.448 262.779 Q745.401 259.284 743.48 257.2 Q741.582 255.117 738.434 255.117 Q734.869 255.117 732.716 257.131 Q730.587 259.145 730.263 262.802 L745.448 262.779 Z" fill="#000000" fill-rule="nonzero" fill-opacity="1" /><path clip-path="url(#clip250)" d="M773.179 274.121 L780.818 274.121 L780.818 247.756 L772.508 249.422 L772.508 245.163 L780.772 243.497 L785.448 243.497 L785.448 274.121 L793.086 274.121 L793.086 278.057 L773.179 278.057 L773.179 274.121 Z" fill="#000000" fill-rule="nonzero" fill-opacity="1" /><path clip-path="url(#clip250)" d="M802.531 272.177 L807.415 272.177 L807.415 278.057 L802.531 278.057 L802.531 272.177 Z" fill="#000000" fill-rule="nonzero" fill-opacity="1" /><path clip-path="url(#clip250)" d="M817.739 277.339 L817.739 273.08 Q819.498 273.913 821.304 274.353 Q823.109 274.793 824.845 274.793 Q829.475 274.793 831.906 271.691 Q834.359 268.566 834.707 262.223 Q833.364 264.214 831.304 265.279 Q829.244 266.344 826.744 266.344 Q821.558 266.344 818.526 263.219 Q815.517 260.071 815.517 254.631 Q815.517 249.307 818.665 246.089 Q821.813 242.872 827.045 242.872 Q833.04 242.872 836.188 247.478 Q839.359 252.061 839.359 260.811 Q839.359 268.983 835.47 273.867 Q831.605 278.728 825.054 278.728 Q823.295 278.728 821.489 278.381 Q819.683 278.033 817.739 277.339 M827.045 262.686 Q830.193 262.686 832.021 260.534 Q833.873 258.381 833.873 254.631 Q833.873 250.904 832.021 248.751 Q830.193 246.575 827.045 246.575 Q823.896 246.575 822.045 248.751 Q820.216 250.904 820.216 254.631 Q820.216 258.381 822.045 260.534 Q823.896 262.686 827.045 262.686 Z" fill="#000000" fill-rule="nonzero" fill-opacity="1" /><path clip-path="url(#clip250)" d="M860.609 247.571 L848.804 266.02 L860.609 266.02 L860.609 247.571 M859.382 243.497 L865.262 243.497 L865.262 266.02 L870.192 266.02 L870.192 269.908 L865.262 269.908 L865.262 278.057 L860.609 278.057 L860.609 269.908 L845.007 269.908 L845.007 265.395 L859.382 243.497 Z" fill="#000000" fill-rule="nonzero" fill-opacity="1" /><path clip-path="url(#clip250)" d="M892.09 259.422 Q895.447 260.14 897.322 262.409 Q899.22 264.677 899.22 268.01 Q899.22 273.126 895.702 275.927 Q892.183 278.728 885.702 278.728 Q883.526 278.728 881.211 278.288 Q878.919 277.871 876.466 277.015 L876.466 272.501 Q878.41 273.635 880.725 274.214 Q883.04 274.793 885.563 274.793 Q889.961 274.793 892.253 273.057 Q894.567 271.321 894.567 268.01 Q894.567 264.955 892.415 263.242 Q890.285 261.506 886.466 261.506 L882.438 261.506 L882.438 257.663 L886.651 257.663 Q890.1 257.663 891.928 256.297 Q893.757 254.909 893.757 252.316 Q893.757 249.654 891.859 248.242 Q889.984 246.807 886.466 246.807 Q884.544 246.807 882.345 247.223 Q880.146 247.64 877.507 248.52 L877.507 244.353 Q880.169 243.612 882.484 243.242 Q884.822 242.872 886.882 242.872 Q892.206 242.872 895.308 245.302 Q898.41 247.71 898.41 251.83 Q898.41 254.7 896.766 256.691 Q895.123 258.659 892.09 259.422 Z" fill="#000000" fill-rule="nonzero" fill-opacity="1" /><path clip-path="url(#clip250)" d="M906.905 243.497 L929.127 243.497 L929.127 245.487 L916.581 278.057 L911.697 278.057 L923.502 247.432 L906.905 247.432 L906.905 243.497 Z" fill="#000000" fill-rule="nonzero" fill-opacity="1" /></svg>
