<?xml version="1.0" encoding="utf-8"?>
<svg xmlns="http://www.w3.org/2000/svg" xmlns:xlink="http://www.w3.org/1999/xlink" width="672" height="480" viewBox="0 0 2688 1920">
<defs>
  <clipPath id="clip550">
    <rect x="0" y="0" width="2688" height="1920"/>
  </clipPath>
</defs>
<path clip-path="url(#clip550)" d="M0 1920 L2688 1920 L2688 0 L0 0  Z" fill="#ffffff" fill-rule="evenodd" fill-opacity="1"/>
<defs>
  <clipPath id="clip551">
    <rect x="537" y="0" width="1883" height="1883"/>
  </clipPath>
</defs>
<path clip-path="url(#clip550)" d="M216.487 1787.62 L2640.76 1787.62 L2640.76 47.2441 L216.487 47.2441  Z" fill="#ffffff" fill-rule="evenodd" fill-opacity="1"/>
<defs>
  <clipPath id="clip552">
    <rect x="216" y="47" width="2425" height="1741"/>
  </clipPath>
</defs>
<polyline clip-path="url(#clip552)" style="stroke:#000000; stroke-linecap:round; stroke-linejoin:round; stroke-width:2; stroke-opacity:0.1; fill:none" points="1128.3,1787.62 1128.3,47.2441 "/>
<polyline clip-path="url(#clip552)" style="stroke:#000000; stroke-linecap:round; stroke-linejoin:round; stroke-width:2; stroke-opacity:0.1; fill:none" points="2572.14,1787.62 2572.14,47.2441 "/>
<polyline clip-path="url(#clip552)" style="stroke:#000000; stroke-linecap:round; stroke-linejoin:round; stroke-width:2; stroke-opacity:0.1; fill:none" points="216.487,1128.32 2640.76,1128.32 "/>
<polyline clip-path="url(#clip552)" style="stroke:#000000; stroke-linecap:round; stroke-linejoin:round; stroke-width:2; stroke-opacity:0.1; fill:none" points="216.487,96.5 2640.76,96.5 "/>
<polyline clip-path="url(#clip550)" style="stroke:#000000; stroke-linecap:round; stroke-linejoin:round; stroke-width:4; stroke-opacity:1; fill:none" points="216.487,1787.62 2640.76,1787.62 "/>
<polyline clip-path="url(#clip550)" style="stroke:#000000; stroke-linecap:round; stroke-linejoin:round; stroke-width:4; stroke-opacity:1; fill:none" points="1128.3,1787.62 1128.3,1768.72 "/>
<polyline clip-path="url(#clip550)" style="stroke:#000000; stroke-linecap:round; stroke-linejoin:round; stroke-width:4; stroke-opacity:1; fill:none" points="2572.14,1787.62 2572.14,1768.72 "/>
<path clip-path="url(#clip550)" d="M1078.32 1864.05 L1085.96 1864.05 L1085.96 1837.68 L1077.65 1839.35 L1077.65 1835.09 L1085.92 1833.42 L1090.59 1833.42 L1090.59 1864.05 L1098.23 1864.05 L1098.23 1867.98 L1078.32 1867.98 L1078.32 1864.05 Z" fill="#000000" fill-rule="nonzero" fill-opacity="1" /><path clip-path="url(#clip550)" d="M1117.68 1836.5 Q1114.06 1836.5 1112.24 1840.07 Q1110.43 1843.61 1110.43 1850.74 Q1110.43 1857.84 1112.24 1861.41 Q1114.06 1864.95 1117.68 1864.95 Q1121.31 1864.95 1123.12 1861.41 Q1124.94 1857.84 1124.94 1850.74 Q1124.94 1843.61 1123.12 1840.07 Q1121.31 1836.5 1117.68 1836.5 M1117.68 1832.8 Q1123.49 1832.8 1126.54 1837.4 Q1129.62 1841.99 1129.62 1850.74 Q1129.62 1859.46 1126.54 1864.07 Q1123.49 1868.65 1117.68 1868.65 Q1111.87 1868.65 1108.79 1864.07 Q1105.73 1859.46 1105.73 1850.74 Q1105.73 1841.99 1108.79 1837.4 Q1111.87 1832.8 1117.68 1832.8 Z" fill="#000000" fill-rule="nonzero" fill-opacity="1" /><path clip-path="url(#clip550)" d="M1129.62 1826.9 L1153.73 1826.9 L1153.73 1830.1 L1129.62 1830.1 L1129.62 1826.9 Z" fill="#000000" fill-rule="nonzero" fill-opacity="1" /><path clip-path="url(#clip550)" d="M1161.97 1812.49 L1176.88 1812.49 L1176.88 1815.69 L1165.45 1815.69 L1165.45 1822.57 Q1166.28 1822.29 1167.1 1822.16 Q1167.93 1822.01 1168.76 1822.01 Q1173.46 1822.01 1176.21 1824.59 Q1178.95 1827.16 1178.95 1831.56 Q1178.95 1836.1 1176.13 1838.62 Q1173.31 1841.12 1168.18 1841.12 Q1166.41 1841.12 1164.56 1840.82 Q1162.74 1840.52 1160.78 1839.91 L1160.78 1836.1 Q1162.48 1837.02 1164.28 1837.47 Q1166.09 1837.92 1168.1 1837.92 Q1171.35 1837.92 1173.25 1836.21 Q1175.15 1834.5 1175.15 1831.56 Q1175.15 1828.63 1173.25 1826.92 Q1171.35 1825.21 1168.1 1825.21 Q1166.58 1825.21 1165.05 1825.54 Q1163.55 1825.88 1161.97 1826.6 L1161.97 1812.49 Z" fill="#000000" fill-rule="nonzero" fill-opacity="1" /><path clip-path="url(#clip550)" d="M2537.13 1864.05 L2544.77 1864.05 L2544.77 1837.68 L2536.46 1839.35 L2536.46 1835.09 L2544.72 1833.42 L2549.4 1833.42 L2549.4 1864.05 L2557.03 1864.05 L2557.03 1867.98 L2537.13 1867.98 L2537.13 1864.05 Z" fill="#000000" fill-rule="nonzero" fill-opacity="1" /><path clip-path="url(#clip550)" d="M2576.48 1836.5 Q2572.87 1836.5 2571.04 1840.07 Q2569.23 1843.61 2569.23 1850.74 Q2569.23 1857.84 2571.04 1861.41 Q2572.87 1864.95 2576.48 1864.95 Q2580.11 1864.95 2581.92 1861.41 Q2583.75 1857.84 2583.75 1850.74 Q2583.75 1843.61 2581.92 1840.07 Q2580.11 1836.5 2576.48 1836.5 M2576.48 1832.8 Q2582.29 1832.8 2585.34 1837.4 Q2588.42 1841.99 2588.42 1850.74 Q2588.42 1859.46 2585.34 1864.07 Q2582.29 1868.65 2576.48 1868.65 Q2570.67 1868.65 2567.59 1864.07 Q2564.53 1859.46 2564.53 1850.74 Q2564.53 1841.99 2567.59 1837.4 Q2570.67 1832.8 2576.48 1832.8 Z" fill="#000000" fill-rule="nonzero" fill-opacity="1" /><path clip-path="url(#clip550)" d="M2598.13 1814.99 Q2595.19 1814.99 2593.71 1817.89 Q2592.24 1820.77 2592.24 1826.56 Q2592.24 1832.33 2593.71 1835.23 Q2595.19 1838.11 2598.13 1838.11 Q2601.08 1838.11 2602.55 1835.23 Q2604.03 1832.33 2604.03 1826.56 Q2604.03 1820.77 2602.55 1817.89 Q2601.08 1814.99 2598.13 1814.99 M2598.13 1811.98 Q2602.85 1811.98 2605.33 1815.73 Q2607.83 1819.45 2607.83 1826.56 Q2607.83 1833.65 2605.33 1837.39 Q2602.85 1841.12 2598.13 1841.12 Q2593.41 1841.12 2590.91 1837.39 Q2588.42 1833.65 2588.42 1826.56 Q2588.42 1819.45 2590.91 1815.73 Q2593.41 1811.98 2598.13 1811.98 Z" fill="#000000" fill-rule="nonzero" fill-opacity="1" /><polyline clip-path="url(#clip550)" style="stroke:#000000; stroke-linecap:round; stroke-linejoin:round; stroke-width:4; stroke-opacity:1; fill:none" points="216.487,1787.62 216.487,47.2441 "/>
<polyline clip-path="url(#clip550)" style="stroke:#000000; stroke-linecap:round; stroke-linejoin:round; stroke-width:4; stroke-opacity:1; fill:none" points="216.487,1128.32 235.385,1128.32 "/>
<polyline clip-path="url(#clip550)" style="stroke:#000000; stroke-linecap:round; stroke-linejoin:round; stroke-width:4; stroke-opacity:1; fill:none" points="216.487,96.5 235.385,96.5 "/>
<path clip-path="url(#clip550)" d="M50.2234 1148.11 L57.8623 1148.11 L57.8623 1121.75 L49.5521 1123.41 L49.5521 1119.15 L57.816 1117.49 L62.4919 1117.49 L62.4919 1148.11 L70.1307 1148.11 L70.1307 1152.05 L50.2234 1152.05 L50.2234 1148.11 Z" fill="#000000" fill-rule="nonzero" fill-opacity="1" /><path clip-path="url(#clip550)" d="M89.5751 1120.56 Q85.964 1120.56 84.1353 1124.13 Q82.3297 1127.67 82.3297 1134.8 Q82.3297 1141.91 84.1353 1145.47 Q85.964 1149.01 89.5751 1149.01 Q93.2093 1149.01 95.0148 1145.47 Q96.8435 1141.91 96.8435 1134.8 Q96.8435 1127.67 95.0148 1124.13 Q93.2093 1120.56 89.5751 1120.56 M89.5751 1116.86 Q95.3852 1116.86 98.4408 1121.47 Q101.519 1126.05 101.519 1134.8 Q101.519 1143.53 98.4408 1148.13 Q95.3852 1152.72 89.5751 1152.72 Q83.7649 1152.72 80.6862 1148.13 Q77.6307 1143.53 77.6307 1134.8 Q77.6307 1126.05 80.6862 1121.47 Q83.7649 1116.86 89.5751 1116.86 Z" fill="#000000" fill-rule="nonzero" fill-opacity="1" /><path clip-path="url(#clip550)" d="M101.519 1110.96 L125.631 1110.96 L125.631 1114.16 L101.519 1114.16 L101.519 1110.96 Z" fill="#000000" fill-rule="nonzero" fill-opacity="1" /><path clip-path="url(#clip550)" d="M134.489 1121.44 L140.696 1121.44 L140.696 1100.02 L133.944 1101.37 L133.944 1097.91 L140.658 1096.56 L144.458 1096.56 L144.458 1121.44 L150.664 1121.44 L150.664 1124.64 L134.489 1124.64 L134.489 1121.44 Z" fill="#000000" fill-rule="nonzero" fill-opacity="1" /><path clip-path="url(#clip550)" d="M166.463 1099.06 Q163.529 1099.06 162.043 1101.95 Q160.576 1104.83 160.576 1110.62 Q160.576 1116.4 162.043 1119.29 Q163.529 1122.17 166.463 1122.17 Q169.415 1122.17 170.882 1119.29 Q172.368 1116.4 172.368 1110.62 Q172.368 1104.83 170.882 1101.95 Q169.415 1099.06 166.463 1099.06 M166.463 1096.05 Q171.183 1096.05 173.666 1099.79 Q176.167 1103.51 176.167 1110.62 Q176.167 1117.71 173.666 1121.46 Q171.183 1125.18 166.463 1125.18 Q161.742 1125.18 159.24 1121.46 Q156.758 1117.71 156.758 1110.62 Q156.758 1103.51 159.24 1099.79 Q161.742 1096.05 166.463 1096.05 Z" fill="#000000" fill-rule="nonzero" fill-opacity="1" /><path clip-path="url(#clip550)" d="M105.462 116.292 L113.101 116.292 L113.101 89.9268 L104.791 91.5935 L104.791 87.3342 L113.054 85.6676 L117.73 85.6676 L117.73 116.292 L125.369 116.292 L125.369 120.228 L105.462 120.228 L105.462 116.292 Z" fill="#000000" fill-rule="nonzero" fill-opacity="1" /><path clip-path="url(#clip550)" d="M144.813 88.7463 Q141.202 88.7463 139.374 92.3111 Q137.568 95.8527 137.568 102.982 Q137.568 110.089 139.374 113.654 Q141.202 117.195 144.813 117.195 Q148.448 117.195 150.253 113.654 Q152.082 110.089 152.082 102.982 Q152.082 95.8527 150.253 92.3111 Q148.448 88.7463 144.813 88.7463 M144.813 85.0426 Q150.624 85.0426 153.679 89.649 Q156.758 94.2323 156.758 102.982 Q156.758 111.709 153.679 116.316 Q150.624 120.899 144.813 120.899 Q139.003 120.899 135.925 116.316 Q132.869 111.709 132.869 102.982 Q132.869 94.2323 135.925 89.649 Q139.003 85.0426 144.813 85.0426 Z" fill="#000000" fill-rule="nonzero" fill-opacity="1" /><path clip-path="url(#clip550)" d="M166.463 67.2386 Q163.529 67.2386 162.043 70.135 Q160.576 73.0126 160.576 78.8054 Q160.576 84.5794 162.043 87.4758 Q163.529 90.3534 166.463 90.3534 Q169.415 90.3534 170.882 87.4758 Q172.368 84.5794 172.368 78.8054 Q172.368 73.0126 170.882 70.135 Q169.415 67.2386 166.463 67.2386 M166.463 64.2294 Q171.183 64.2294 173.666 67.9721 Q176.167 71.6961 176.167 78.8054 Q176.167 85.8959 173.666 89.6387 Q171.183 93.3626 166.463 93.3626 Q161.742 93.3626 159.24 89.6387 Q156.758 85.8959 156.758 78.8054 Q156.758 71.6961 159.24 67.9721 Q161.742 64.2294 166.463 64.2294 Z" fill="#000000" fill-rule="nonzero" fill-opacity="1" /><polyline clip-path="url(#clip552)" style="stroke:#add8e6; stroke-linecap:round; stroke-linejoin:round; stroke-width:12; stroke-opacity:1; fill:none" points="285.099,1711.66 308.2,1711.66 331.302,1711.66 377.505,1680.6 400.606,1680.6 423.708,1639.54 446.809,1618.48 469.911,1613.2 493.012,1590.31 516.114,1573.15 539.215,1554.98 562.317,1541.08 585.418,1522.58 608.519,1506.2 631.621,1489.27 654.722,1472.91 677.824,1456.67 700.925,1439.73 724.027,1423.25 747.128,1406.84 770.23,1390.29 793.331,1373.81 816.433,1357.29 839.534,1340.75 862.636,1324.25 885.737,1307.76 908.839,1291.23 931.94,1274.74 955.042,1258.23 978.143,1241.71 1001.24,1225.2 1024.35,1208.69 1047.45,1192.19 1070.55,1175.68 1093.65,1159.17 1116.75,1142.66 1139.85,1126.15 1162.95,1109.64 1186.06,1093.13 1209.16,1076.62 1232.26,1060.11 1255.36,1043.6 1278.46,1027.09 1301.56,1010.58 1324.67,994.076 1347.77,977.566 1370.87,961.057 1393.97,944.548 1417.07,928.039 1440.17,911.529 1463.27,895.02 1486.38,878.51 1509.48,862.001 1532.58,845.491 1555.68,828.981 1578.78,812.471 1601.88,795.961 1624.98,779.451 1648.09,762.941 1671.19,746.43 1694.29,729.919 1717.39,713.407 1740.49,696.895 1763.59,680.382 1786.69,663.869 1809.8,647.355 1832.9,630.84 1856,614.323 1879.1,597.805 1902.2,581.285 1925.3,564.764 1948.4,548.239 1971.51,531.712 1994.61,515.181 2017.71,498.645 2040.81,482.104 2063.91,465.557 2087.01,449.003 2110.12,432.44 2133.22,415.867 2156.32,399.281 2179.42,382.681 2202.52,366.065 2225.62,349.429 2248.72,332.771 2271.83,316.088 2294.93,299.377 2318.03,282.636 2341.13,265.863 2364.23,249.059 2387.33,232.226 2410.43,215.372 2433.54,198.513 2456.64,181.675 2479.74,164.902 2502.84,148.263 2525.94,131.868 2549.04,115.882 2572.14,100.557 "/>
<polyline clip-path="url(#clip552)" style="stroke:#000000; stroke-linecap:round; stroke-linejoin:round; stroke-width:8; stroke-opacity:1; fill:none" stroke-dasharray="32, 20" points="285.099,1730.9 308.2,1714.39 331.302,1697.88 377.505,1664.86 400.606,1648.35 423.708,1631.85 446.809,1615.34 469.911,1598.83 493.012,1582.32 516.114,1565.81 539.215,1549.3 562.317,1532.79 585.418,1516.28 608.519,1499.77 631.621,1483.26 654.722,1466.75 677.824,1450.25 700.925,1433.74 724.027,1417.23 747.128,1400.72 770.23,1384.21 793.331,1367.7 816.433,1351.19 839.534,1334.68 862.636,1318.17 885.737,1301.66 908.839,1285.15 931.94,1268.65 955.042,1252.14 978.143,1235.63 1001.24,1219.12 1024.35,1202.61 1047.45,1186.1 1070.55,1169.59 1093.65,1153.08 1116.75,1136.57 1139.85,1120.06 1162.95,1103.55 1186.06,1087.05 1209.16,1070.54 1232.26,1054.03 1255.36,1037.52 1278.46,1021.01 1301.56,1004.5 1324.67,987.991 1347.77,971.482 1370.87,954.973 1393.97,938.464 1417.07,921.955 1440.17,905.446 1463.27,888.937 1486.38,872.427 1509.48,855.918 1532.58,839.409 1555.68,822.9 1578.78,806.391 1601.88,789.882 1624.98,773.373 1648.09,756.864 1671.19,740.355 1694.29,723.846 1717.39,707.336 1740.49,690.827 1763.59,674.318 1786.69,657.809 1809.8,641.3 1832.9,624.791 1856,608.282 1879.1,591.773 1902.2,575.264 1925.3,558.755 1948.4,542.246 1971.51,525.736 1994.61,509.227 2017.71,492.718 2040.81,476.209 2063.91,459.7 2087.01,443.191 2110.12,426.682 2133.22,410.173 2156.32,393.664 2179.42,377.155 2202.52,360.645 2225.62,344.136 2248.72,327.627 2271.83,311.118 2294.93,294.609 2318.03,278.1 2341.13,261.591 2364.23,245.082 2387.33,228.573 2410.43,212.064 2433.54,195.555 2456.64,179.045 2479.74,162.536 2502.84,146.027 2525.94,129.518 2549.04,113.009 2572.14,96.5 "/>
<polyline clip-path="url(#clip552)" style="stroke:#0000ff; stroke-linecap:round; stroke-linejoin:round; stroke-width:8; stroke-opacity:1; fill:none" stroke-dasharray="4, 8" points="285.099,1738.36 308.2,1721.82 331.302,1705.28 377.505,1672.2 400.606,1655.66 423.708,1639.12 446.809,1622.58 469.911,1606.04 493.012,1589.5 516.114,1572.96 539.215,1556.42 562.317,1539.87 585.418,1523.33 608.519,1506.79 631.621,1490.25 654.722,1473.71 677.824,1457.17 700.925,1440.63 724.027,1424.09 747.128,1407.55 770.23,1391.01 793.331,1374.47 816.433,1357.93 839.534,1341.39 862.636,1324.85 885.737,1308.31 908.839,1291.76 931.94,1275.22 955.042,1258.68 978.143,1242.14 1001.24,1225.6 1024.35,1209.06 1047.45,1192.52 1070.55,1175.98 1093.65,1159.44 1116.75,1142.9 1139.85,1126.36 1162.95,1109.82 1186.06,1093.28 1209.16,1076.74 1232.26,1060.19 1255.36,1043.65 1278.46,1027.11 1301.56,1010.57 1324.67,994.032 1347.77,977.491 1370.87,960.951 1393.97,944.41 1417.07,927.869 1440.17,911.329 1463.27,894.788 1486.38,878.247 1509.48,861.707 1532.58,845.166 1555.68,828.625 1578.78,812.085 1601.88,795.544 1624.98,779.003 1648.09,762.463 1671.19,745.922 1694.29,729.381 1717.39,712.841 1740.49,696.3 1763.59,679.759 1786.69,663.218 1809.8,646.678 1832.9,630.137 1856,613.596 1879.1,597.056 1902.2,580.515 1925.3,563.974 1948.4,547.434 1971.51,530.893 1994.61,514.352 2017.71,497.812 2040.81,481.271 2063.91,464.73 2087.01,448.19 2110.12,431.649 2133.22,415.108 2156.32,398.568 2179.42,382.027 2202.52,365.486 2225.62,348.946 2248.72,332.405 2271.83,315.864 2294.93,299.323 2318.03,282.783 2341.13,266.242 2364.23,249.701 2387.33,233.161 2410.43,216.62 2433.54,200.079 2456.64,183.539 2479.74,166.998 2502.84,150.457 2525.94,133.917 2549.04,117.376 2572.14,100.835 "/>
<path clip-path="url(#clip550)" d="M297.296 312.617 L956.874 312.617 L956.874 105.257 L297.296 105.257  Z" fill="#ffffff" fill-rule="evenodd" fill-opacity="1"/>
<polyline clip-path="url(#clip550)" style="stroke:#000000; stroke-linecap:round; stroke-linejoin:round; stroke-width:4; stroke-opacity:1; fill:none" points="297.296,312.617 956.874,312.617 956.874,105.257 297.296,105.257 297.296,312.617 "/>
<polyline clip-path="url(#clip550)" style="stroke:#add8e6; stroke-linecap:round; stroke-linejoin:round; stroke-width:12; stroke-opacity:1; fill:none" points="324.233,157.097 485.851,157.097 "/>
<path clip-path="url(#clip550)" d="M547.569 137.655 L546.609 145.946 Q546.539 146.696 546.422 146.93 Q546.304 147.141 545.93 147.141 Q545.649 147.141 545.485 146.977 Q545.344 146.789 545.344 146.578 Q545.344 146.461 545.368 146.157 Q545.391 145.852 545.391 145.712 Q545.602 144.26 545.602 143.159 Q545.602 141.121 544.993 140.02 Q544.384 138.896 542.815 138.381 Q541.245 137.842 538.294 137.842 L531.548 137.842 Q530.002 137.842 529.628 138.123 Q529.276 138.404 528.948 139.716 L526.067 151.263 L530.588 151.263 Q532.274 151.263 533.282 151.052 Q534.312 150.841 534.991 150.256 Q535.694 149.647 536.069 148.827 Q536.467 148.007 536.865 146.532 Q536.982 146.04 537.099 145.852 Q537.24 145.665 537.544 145.665 Q537.779 145.665 537.943 145.829 Q538.107 145.969 538.107 146.18 L535.366 157.4 Q535.226 157.962 535.085 158.173 Q534.945 158.36 534.664 158.36 Q534.359 158.36 534.195 158.196 Q534.031 158.032 534.031 157.845 Q534.031 157.657 534.172 157.306 Q534.523 155.783 534.523 154.964 Q534.523 154.495 534.476 154.261 Q534.453 154.027 534.242 153.699 Q534.055 153.348 533.633 153.184 Q533.211 153.02 532.415 152.903 Q531.619 152.762 530.424 152.762 L525.693 152.762 L522.414 165.855 Q522.179 166.722 522.179 166.956 Q522.179 167.214 522.296 167.307 Q522.437 167.378 522.812 167.424 Q523.233 167.495 523.866 167.495 L530.869 167.495 Q532.415 167.495 533.656 167.354 Q534.898 167.214 535.928 166.862 Q536.982 166.511 537.779 166.113 Q538.575 165.715 539.325 164.989 Q540.074 164.239 540.589 163.583 Q541.128 162.904 541.761 161.756 Q542.393 160.609 542.838 159.672 Q543.283 158.711 543.962 157.165 Q544.15 156.603 544.595 156.603 Q544.852 156.603 544.993 156.744 Q545.133 156.861 545.157 156.978 L545.157 157.119 Q545.016 157.564 544.923 157.798 L540.519 168.151 Q540.261 168.736 540.051 168.853 Q539.84 168.97 539.02 168.97 L514.122 168.97 Q513.56 168.97 513.326 168.947 Q513.115 168.923 512.951 168.806 Q512.787 168.666 512.787 168.385 Q512.787 167.94 512.974 167.752 Q513.162 167.542 513.373 167.518 Q513.583 167.495 514.122 167.495 Q515.293 167.495 515.996 167.424 Q516.699 167.354 517.144 167.26 Q517.612 167.143 517.846 166.815 Q518.104 166.488 518.221 166.206 Q518.338 165.902 518.502 165.223 L524.826 139.856 Q525.06 138.99 525.06 138.709 Q525.06 138.404 524.85 138.217 Q524.662 138.029 524.147 137.959 Q523.632 137.865 523.21 137.865 Q522.812 137.842 521.945 137.842 Q521.383 137.842 521.149 137.818 Q520.938 137.795 520.774 137.678 Q520.61 137.561 520.61 137.303 Q520.61 136.647 520.891 136.507 Q521.196 136.343 522.039 136.343 L546.258 136.343 Q547.218 136.343 547.429 136.554 Q547.663 136.741 547.569 137.655 Z" fill="#000000" fill-rule="nonzero" fill-opacity="1" /><path clip-path="url(#clip550)" d="M552.449 156.978 Q552.449 148.874 555.471 142.339 Q556.759 139.599 558.563 137.303 Q560.366 135.008 561.561 134.001 Q562.755 132.993 563.083 132.993 Q563.552 132.993 563.575 133.462 Q563.575 133.696 562.943 134.282 Q555.213 142.152 555.237 156.978 Q555.237 171.851 562.755 179.417 Q563.575 180.237 563.575 180.494 Q563.575 180.963 563.083 180.963 Q562.755 180.963 561.608 180.002 Q560.46 179.042 558.68 176.84 Q556.9 174.639 555.611 171.945 Q552.449 165.41 552.449 156.978 Z" fill="#000000" fill-rule="nonzero" fill-opacity="1" /><path clip-path="url(#clip550)" d="M581.954 148.827 Q581.954 149.483 581.65 149.647 Q581.345 149.787 580.502 149.787 L576.005 149.787 L572.445 163.935 Q572.164 165.176 572.164 166.23 Q572.164 167.401 572.515 167.916 Q572.89 168.432 573.663 168.432 Q575.185 168.432 576.825 167.05 Q578.488 165.668 579.893 162.295 Q580.081 161.85 580.174 161.756 Q580.291 161.639 580.596 161.639 Q581.181 161.639 581.181 162.108 Q581.181 162.272 580.854 163.021 Q580.549 163.771 579.87 164.871 Q579.214 165.972 578.347 167.003 Q577.504 168.033 576.216 168.783 Q574.928 169.509 573.546 169.509 Q571.602 169.509 570.36 168.268 Q569.142 167.026 569.142 165.082 Q569.142 164.45 569.634 162.435 Q570.126 160.398 572.796 149.787 L568.557 149.787 Q567.971 149.787 567.737 149.764 Q567.526 149.741 567.362 149.623 Q567.222 149.483 567.222 149.202 Q567.222 148.757 567.409 148.569 Q567.596 148.359 567.831 148.335 Q568.088 148.288 568.674 148.288 L573.171 148.288 L575.045 140.676 Q575.232 139.927 575.701 139.505 Q576.193 139.06 576.474 139.013 Q576.755 138.943 576.965 138.943 Q577.598 138.943 577.973 139.294 Q578.347 139.622 578.347 140.231 Q578.347 140.559 576.38 148.288 L580.596 148.288 Q581.135 148.288 581.345 148.312 Q581.58 148.335 581.767 148.452 Q581.954 148.569 581.954 148.827 Z" fill="#000000" fill-rule="nonzero" fill-opacity="1" /><path clip-path="url(#clip550)" d="M585.71 180.494 Q585.71 180.26 586.319 179.674 Q594.048 171.804 594.048 156.978 Q594.048 142.105 586.624 134.586 Q585.71 133.72 585.71 133.462 Q585.71 132.993 586.179 132.993 Q586.506 132.993 587.654 133.954 Q588.825 134.914 590.582 137.116 Q592.362 139.318 593.674 142.011 Q596.836 148.546 596.836 156.978 Q596.836 165.082 593.814 171.617 Q592.526 174.357 590.723 176.653 Q588.919 178.948 587.724 179.955 Q586.53 180.963 586.179 180.963 Q585.71 180.963 585.71 180.494 Z" fill="#000000" fill-rule="nonzero" fill-opacity="1" /><polyline clip-path="url(#clip550)" style="stroke:#000000; stroke-linecap:round; stroke-linejoin:round; stroke-width:8; stroke-opacity:1; fill:none" stroke-dasharray="32, 20" points="324.233,208.937 485.851,208.937 "/>
<path clip-path="url(#clip550)" d="M531.213 201.055 L531.213 205.082 Q529.407 204.157 527.463 203.694 Q525.518 203.231 523.435 203.231 Q520.264 203.231 518.667 204.203 Q517.092 205.175 517.092 207.119 Q517.092 208.601 518.227 209.457 Q519.361 210.291 522.787 211.055 L524.245 211.379 Q528.782 212.351 530.68 214.133 Q532.602 215.893 532.602 219.064 Q532.602 222.675 529.731 224.781 Q526.884 226.888 521.884 226.888 Q519.801 226.888 517.532 226.471 Q515.287 226.078 512.787 225.268 L512.787 220.869 Q515.148 222.096 517.44 222.721 Q519.731 223.323 521.977 223.323 Q524.986 223.323 526.606 222.305 Q528.227 221.263 528.227 219.388 Q528.227 217.652 527.046 216.726 Q525.889 215.8 521.93 214.943 L520.449 214.596 Q516.491 213.763 514.731 212.05 Q512.972 210.314 512.972 207.305 Q512.972 203.647 515.565 201.657 Q518.157 199.666 522.926 199.666 Q525.287 199.666 527.37 200.013 Q529.454 200.36 531.213 201.055 Z" fill="#000000" fill-rule="nonzero" fill-opacity="1" /><path clip-path="url(#clip550)" d="M539.384 190.198 L543.643 190.198 L543.643 226.217 L539.384 226.217 L539.384 190.198 Z" fill="#000000" fill-rule="nonzero" fill-opacity="1" /><path clip-path="url(#clip550)" d="M562.602 203.277 Q559.176 203.277 557.185 205.962 Q555.194 208.624 555.194 213.277 Q555.194 217.93 557.162 220.615 Q559.152 223.277 562.602 223.277 Q566.004 223.277 567.995 220.592 Q569.986 217.906 569.986 213.277 Q569.986 208.67 567.995 205.985 Q566.004 203.277 562.602 203.277 M562.602 199.666 Q568.157 199.666 571.328 203.277 Q574.5 206.888 574.5 213.277 Q574.5 219.643 571.328 223.277 Q568.157 226.888 562.602 226.888 Q557.023 226.888 553.852 223.277 Q550.703 219.643 550.703 213.277 Q550.703 206.888 553.852 203.277 Q557.023 199.666 562.602 199.666 Z" fill="#000000" fill-rule="nonzero" fill-opacity="1" /><path clip-path="url(#clip550)" d="M585.68 222.328 L585.68 236.078 L581.398 236.078 L581.398 200.291 L585.68 200.291 L585.68 204.226 Q587.023 201.911 589.06 200.8 Q591.12 199.666 593.967 199.666 Q598.689 199.666 601.629 203.416 Q604.592 207.166 604.592 213.277 Q604.592 219.388 601.629 223.138 Q598.689 226.888 593.967 226.888 Q591.12 226.888 589.06 225.777 Q587.023 224.643 585.68 222.328 M600.171 213.277 Q600.171 208.578 598.226 205.916 Q596.305 203.231 592.925 203.231 Q589.546 203.231 587.601 205.916 Q585.68 208.578 585.68 213.277 Q585.68 217.976 587.601 220.661 Q589.546 223.323 592.925 223.323 Q596.305 223.323 598.226 220.661 Q600.171 217.976 600.171 213.277 Z" fill="#000000" fill-rule="nonzero" fill-opacity="1" /><path clip-path="url(#clip550)" d="M633.828 212.189 L633.828 214.272 L614.245 214.272 Q614.523 218.67 616.884 220.985 Q619.268 223.277 623.504 223.277 Q625.958 223.277 628.249 222.675 Q630.564 222.073 632.833 220.869 L632.833 224.897 Q630.541 225.869 628.134 226.379 Q625.726 226.888 623.249 226.888 Q617.046 226.888 613.411 223.277 Q609.8 219.666 609.8 213.508 Q609.8 207.143 613.226 203.416 Q616.675 199.666 622.509 199.666 Q627.74 199.666 630.772 203.045 Q633.828 206.402 633.828 212.189 M629.569 210.939 Q629.522 207.444 627.601 205.36 Q625.703 203.277 622.555 203.277 Q618.99 203.277 616.837 205.291 Q614.708 207.305 614.384 210.962 L629.569 210.939 Z" fill="#000000" fill-rule="nonzero" fill-opacity="1" /><path clip-path="url(#clip550)" d="M672.416 201.055 L672.416 205.082 Q670.61 204.157 668.666 203.694 Q666.721 203.231 664.638 203.231 Q661.467 203.231 659.869 204.203 Q658.295 205.175 658.295 207.119 Q658.295 208.601 659.43 209.457 Q660.564 210.291 663.99 211.055 L665.448 211.379 Q669.985 212.351 671.883 214.133 Q673.805 215.893 673.805 219.064 Q673.805 222.675 670.934 224.781 Q668.087 226.888 663.087 226.888 Q661.004 226.888 658.735 226.471 Q656.49 226.078 653.99 225.268 L653.99 220.869 Q656.351 222.096 658.643 222.721 Q660.934 223.323 663.18 223.323 Q666.189 223.323 667.809 222.305 Q669.43 221.263 669.43 219.388 Q669.43 217.652 668.249 216.726 Q667.092 215.8 663.133 214.943 L661.652 214.596 Q657.694 213.763 655.934 212.05 Q654.175 210.314 654.175 207.305 Q654.175 203.647 656.768 201.657 Q659.36 199.666 664.129 199.666 Q666.49 199.666 668.573 200.013 Q670.656 200.36 672.416 201.055 Z" fill="#000000" fill-rule="nonzero" fill-opacity="1" /><path clip-path="url(#clip550)" d="M681.143 204.689 L710.818 204.689 L710.818 208.578 L681.143 208.578 L681.143 204.689 M681.143 214.133 L710.818 214.133 L710.818 218.068 L681.143 218.068 L681.143 214.133 Z" fill="#000000" fill-rule="nonzero" fill-opacity="1" /><path clip-path="url(#clip550)" d="M724.939 222.281 L741.258 222.281 L741.258 226.217 L719.314 226.217 L719.314 222.281 Q721.976 219.527 726.559 214.897 Q731.165 210.244 732.346 208.902 Q734.591 206.379 735.471 204.643 Q736.374 202.883 736.374 201.194 Q736.374 198.439 734.429 196.703 Q732.508 194.967 729.406 194.967 Q727.207 194.967 724.753 195.731 Q722.323 196.495 719.545 198.045 L719.545 193.323 Q722.369 192.189 724.823 191.61 Q727.277 191.032 729.314 191.032 Q734.684 191.032 737.878 193.717 Q741.073 196.402 741.073 200.893 Q741.073 203.022 740.263 204.944 Q739.476 206.842 737.369 209.434 Q736.79 210.106 733.689 213.323 Q730.587 216.518 724.939 222.281 Z" fill="#000000" fill-rule="nonzero" fill-opacity="1" /><path clip-path="url(#clip550)" d="M751.073 220.337 L755.957 220.337 L755.957 226.217 L751.073 226.217 L751.073 220.337 Z" fill="#000000" fill-rule="nonzero" fill-opacity="1" /><path clip-path="url(#clip550)" d="M776.142 194.735 Q772.531 194.735 770.702 198.3 Q768.897 201.842 768.897 208.971 Q768.897 216.078 770.702 219.643 Q772.531 223.184 776.142 223.184 Q779.776 223.184 781.582 219.643 Q783.411 216.078 783.411 208.971 Q783.411 201.842 781.582 198.3 Q779.776 194.735 776.142 194.735 M776.142 191.032 Q781.952 191.032 785.008 195.638 Q788.086 200.221 788.086 208.971 Q788.086 217.698 785.008 222.305 Q781.952 226.888 776.142 226.888 Q770.332 226.888 767.253 222.305 Q764.198 217.698 764.198 208.971 Q764.198 200.221 767.253 195.638 Q770.332 191.032 776.142 191.032 Z" fill="#000000" fill-rule="nonzero" fill-opacity="1" /><polyline clip-path="url(#clip550)" style="stroke:#0000ff; stroke-linecap:round; stroke-linejoin:round; stroke-width:8; stroke-opacity:1; fill:none" stroke-dasharray="4, 8" points="324.233,260.777 485.851,260.777 "/>
<path clip-path="url(#clip550)" d="M531.56 265.117 Q531.56 260.418 529.616 257.756 Q527.694 255.071 524.315 255.071 Q520.935 255.071 518.991 257.756 Q517.069 260.418 517.069 265.117 Q517.069 269.816 518.991 272.501 Q520.935 275.163 524.315 275.163 Q527.694 275.163 529.616 272.501 Q531.56 269.816 531.56 265.117 M517.069 256.066 Q518.412 253.751 520.449 252.64 Q522.509 251.506 525.356 251.506 Q530.079 251.506 533.018 255.256 Q535.981 259.006 535.981 265.117 Q535.981 271.228 533.018 274.978 Q530.079 278.728 525.356 278.728 Q522.509 278.728 520.449 277.617 Q518.412 276.483 517.069 274.168 L517.069 278.057 L512.787 278.057 L512.787 242.038 L517.069 242.038 L517.069 256.066 Z" fill="#000000" fill-rule="nonzero" fill-opacity="1" /><path clip-path="url(#clip550)" d="M565.217 264.029 L565.217 266.112 L545.634 266.112 Q545.912 270.51 548.273 272.825 Q550.657 275.117 554.893 275.117 Q557.347 275.117 559.639 274.515 Q561.953 273.913 564.222 272.709 L564.222 276.737 Q561.93 277.709 559.523 278.219 Q557.115 278.728 554.639 278.728 Q548.435 278.728 544.801 275.117 Q541.19 271.506 541.19 265.348 Q541.19 258.983 544.615 255.256 Q548.065 251.506 553.898 251.506 Q559.129 251.506 562.162 254.885 Q565.217 258.242 565.217 264.029 M560.958 262.779 Q560.912 259.284 558.99 257.2 Q557.092 255.117 553.944 255.117 Q550.379 255.117 548.227 257.131 Q546.097 259.145 545.773 262.802 L560.958 262.779 Z" fill="#000000" fill-rule="nonzero" fill-opacity="1" /><path clip-path="url(#clip550)" d="M588.736 252.895 L588.736 256.922 Q586.93 255.997 584.986 255.534 Q583.041 255.071 580.958 255.071 Q577.787 255.071 576.189 256.043 Q574.615 257.015 574.615 258.959 Q574.615 260.441 575.75 261.297 Q576.884 262.131 580.31 262.895 L581.768 263.219 Q586.305 264.191 588.203 265.973 Q590.125 267.733 590.125 270.904 Q590.125 274.515 587.254 276.621 Q584.407 278.728 579.407 278.728 Q577.324 278.728 575.055 278.311 Q572.81 277.918 570.31 277.108 L570.31 272.709 Q572.671 273.936 574.963 274.561 Q577.254 275.163 579.5 275.163 Q582.509 275.163 584.129 274.145 Q585.75 273.103 585.75 271.228 Q585.75 269.492 584.569 268.566 Q583.412 267.64 579.453 266.783 L577.972 266.436 Q574.013 265.603 572.254 263.89 Q570.495 262.154 570.495 259.145 Q570.495 255.487 573.088 253.497 Q575.68 251.506 580.449 251.506 Q582.81 251.506 584.893 251.853 Q586.976 252.2 588.736 252.895 Z" fill="#000000" fill-rule="nonzero" fill-opacity="1" /><path clip-path="url(#clip550)" d="M601.12 244.77 L601.12 252.131 L609.893 252.131 L609.893 255.441 L601.12 255.441 L601.12 269.515 Q601.12 272.686 601.976 273.589 Q602.856 274.492 605.518 274.492 L609.893 274.492 L609.893 278.057 L605.518 278.057 Q600.587 278.057 598.712 276.228 Q596.837 274.376 596.837 269.515 L596.837 255.441 L593.712 255.441 L593.712 252.131 L596.837 252.131 L596.837 244.77 L601.12 244.77 Z" fill="#000000" fill-rule="nonzero" fill-opacity="1" /><path clip-path="url(#clip550)" d="M647.092 252.895 L647.092 256.922 Q645.286 255.997 643.342 255.534 Q641.397 255.071 639.314 255.071 Q636.143 255.071 634.546 256.043 Q632.971 257.015 632.971 258.959 Q632.971 260.441 634.106 261.297 Q635.24 262.131 638.666 262.895 L640.124 263.219 Q644.661 264.191 646.559 265.973 Q648.481 267.733 648.481 270.904 Q648.481 274.515 645.61 276.621 Q642.763 278.728 637.763 278.728 Q635.68 278.728 633.411 278.311 Q631.166 277.918 628.666 277.108 L628.666 272.709 Q631.027 273.936 633.319 274.561 Q635.61 275.163 637.856 275.163 Q640.865 275.163 642.485 274.145 Q644.106 273.103 644.106 271.228 Q644.106 269.492 642.925 268.566 Q641.768 267.64 637.809 266.783 L636.328 266.436 Q632.37 265.603 630.61 263.89 Q628.851 262.154 628.851 259.145 Q628.851 255.487 631.444 253.497 Q634.036 251.506 638.805 251.506 Q641.166 251.506 643.249 251.853 Q645.333 252.2 647.092 252.895 Z" fill="#000000" fill-rule="nonzero" fill-opacity="1" /><path clip-path="url(#clip550)" d="M655.263 242.038 L659.522 242.038 L659.522 278.057 L655.263 278.057 L655.263 242.038 Z" fill="#000000" fill-rule="nonzero" fill-opacity="1" /><path clip-path="url(#clip550)" d="M678.481 255.117 Q675.055 255.117 673.064 257.802 Q671.073 260.464 671.073 265.117 Q671.073 269.77 673.041 272.455 Q675.031 275.117 678.481 275.117 Q681.883 275.117 683.874 272.432 Q685.865 269.746 685.865 265.117 Q685.865 260.51 683.874 257.825 Q681.883 255.117 678.481 255.117 M678.481 251.506 Q684.036 251.506 687.207 255.117 Q690.379 258.728 690.379 265.117 Q690.379 271.483 687.207 275.117 Q684.036 278.728 678.481 278.728 Q672.902 278.728 669.731 275.117 Q666.582 271.483 666.582 265.117 Q666.582 258.728 669.731 255.117 Q672.902 251.506 678.481 251.506 Z" fill="#000000" fill-rule="nonzero" fill-opacity="1" /><path clip-path="url(#clip550)" d="M701.559 274.168 L701.559 287.918 L697.277 287.918 L697.277 252.131 L701.559 252.131 L701.559 256.066 Q702.902 253.751 704.939 252.64 Q706.999 251.506 709.846 251.506 Q714.568 251.506 717.508 255.256 Q720.471 259.006 720.471 265.117 Q720.471 271.228 717.508 274.978 Q714.568 278.728 709.846 278.728 Q706.999 278.728 704.939 277.617 Q702.902 276.483 701.559 274.168 M716.05 265.117 Q716.05 260.418 714.105 257.756 Q712.184 255.071 708.804 255.071 Q705.425 255.071 703.48 257.756 Q701.559 260.418 701.559 265.117 Q701.559 269.816 703.48 272.501 Q705.425 275.163 708.804 275.163 Q712.184 275.163 714.105 272.501 Q716.05 269.816 716.05 265.117 Z" fill="#000000" fill-rule="nonzero" fill-opacity="1" /><path clip-path="url(#clip550)" d="M749.707 264.029 L749.707 266.112 L730.124 266.112 Q730.402 270.51 732.763 272.825 Q735.147 275.117 739.383 275.117 Q741.837 275.117 744.128 274.515 Q746.443 273.913 748.712 272.709 L748.712 276.737 Q746.42 277.709 744.013 278.219 Q741.605 278.728 739.128 278.728 Q732.925 278.728 729.29 275.117 Q725.679 271.506 725.679 265.348 Q725.679 258.983 729.105 255.256 Q732.554 251.506 738.388 251.506 Q743.619 251.506 746.651 254.885 Q749.707 258.242 749.707 264.029 M745.448 262.779 Q745.401 259.284 743.48 257.2 Q741.582 255.117 738.434 255.117 Q734.869 255.117 732.716 257.131 Q730.587 259.145 730.263 262.802 L745.448 262.779 Z" fill="#000000" fill-rule="nonzero" fill-opacity="1" /><path clip-path="url(#clip550)" d="M776.397 274.121 L792.716 274.121 L792.716 278.057 L770.772 278.057 L770.772 274.121 Q773.434 271.367 778.017 266.737 Q782.623 262.084 783.804 260.742 Q786.049 258.219 786.929 256.483 Q787.832 254.723 787.832 253.034 Q787.832 250.279 785.887 248.543 Q783.966 246.807 780.864 246.807 Q778.665 246.807 776.211 247.571 Q773.781 248.335 771.003 249.885 L771.003 245.163 Q773.827 244.029 776.281 243.45 Q778.735 242.872 780.772 242.872 Q786.142 242.872 789.336 245.557 Q792.531 248.242 792.531 252.733 Q792.531 254.862 791.721 256.784 Q790.934 258.682 788.827 261.274 Q788.248 261.946 785.147 265.163 Q782.045 268.358 776.397 274.121 Z" fill="#000000" fill-rule="nonzero" fill-opacity="1" /><path clip-path="url(#clip550)" d="M802.531 272.177 L807.415 272.177 L807.415 278.057 L802.531 278.057 L802.531 272.177 Z" fill="#000000" fill-rule="nonzero" fill-opacity="1" /><path clip-path="url(#clip550)" d="M827.6 246.575 Q823.989 246.575 822.16 250.14 Q820.355 253.682 820.355 260.811 Q820.355 267.918 822.16 271.483 Q823.989 275.024 827.6 275.024 Q831.234 275.024 833.04 271.483 Q834.869 267.918 834.869 260.811 Q834.869 253.682 833.04 250.14 Q831.234 246.575 827.6 246.575 M827.6 242.872 Q833.41 242.872 836.466 247.478 Q839.544 252.061 839.544 260.811 Q839.544 269.538 836.466 274.145 Q833.41 278.728 827.6 278.728 Q821.79 278.728 818.711 274.145 Q815.656 269.538 815.656 260.811 Q815.656 252.061 818.711 247.478 Q821.79 242.872 827.6 242.872 Z" fill="#000000" fill-rule="nonzero" fill-opacity="1" /><path clip-path="url(#clip550)" d="M857.762 246.575 Q854.151 246.575 852.322 250.14 Q850.517 253.682 850.517 260.811 Q850.517 267.918 852.322 271.483 Q854.151 275.024 857.762 275.024 Q861.396 275.024 863.202 271.483 Q865.03 267.918 865.03 260.811 Q865.03 253.682 863.202 250.14 Q861.396 246.575 857.762 246.575 M857.762 242.872 Q863.572 242.872 866.628 247.478 Q869.706 252.061 869.706 260.811 Q869.706 269.538 866.628 274.145 Q863.572 278.728 857.762 278.728 Q851.952 278.728 848.873 274.145 Q845.818 269.538 845.818 260.811 Q845.818 252.061 848.873 247.478 Q851.952 242.872 857.762 242.872 Z" fill="#000000" fill-rule="nonzero" fill-opacity="1" /><path clip-path="url(#clip550)" d="M892.09 259.422 Q895.447 260.14 897.322 262.409 Q899.22 264.677 899.22 268.01 Q899.22 273.126 895.702 275.927 Q892.183 278.728 885.702 278.728 Q883.526 278.728 881.211 278.288 Q878.919 277.871 876.466 277.015 L876.466 272.501 Q878.41 273.635 880.725 274.214 Q883.04 274.793 885.563 274.793 Q889.961 274.793 892.253 273.057 Q894.567 271.321 894.567 268.01 Q894.567 264.955 892.415 263.242 Q890.285 261.506 886.466 261.506 L882.438 261.506 L882.438 257.663 L886.651 257.663 Q890.1 257.663 891.928 256.297 Q893.757 254.909 893.757 252.316 Q893.757 249.654 891.859 248.242 Q889.984 246.807 886.466 246.807 Q884.544 246.807 882.345 247.223 Q880.146 247.64 877.507 248.52 L877.507 244.353 Q880.169 243.612 882.484 243.242 Q884.822 242.872 886.882 242.872 Q892.206 242.872 895.308 245.302 Q898.41 247.71 898.41 251.83 Q898.41 254.7 896.766 256.691 Q895.123 258.659 892.09 259.422 Z" fill="#000000" fill-rule="nonzero" fill-opacity="1" /><path clip-path="url(#clip550)" d="M918.086 261.645 Q914.752 261.645 912.831 263.427 Q910.933 265.209 910.933 268.334 Q910.933 271.459 912.831 273.242 Q914.752 275.024 918.086 275.024 Q921.419 275.024 923.34 273.242 Q925.262 271.436 925.262 268.334 Q925.262 265.209 923.34 263.427 Q921.442 261.645 918.086 261.645 M913.41 259.654 Q910.401 258.913 908.711 256.853 Q907.044 254.793 907.044 251.83 Q907.044 247.686 909.984 245.279 Q912.947 242.872 918.086 242.872 Q923.248 242.872 926.188 245.279 Q929.127 247.686 929.127 251.83 Q929.127 254.793 927.438 256.853 Q925.771 258.913 922.785 259.654 Q926.164 260.441 928.039 262.733 Q929.937 265.024 929.937 268.334 Q929.937 273.358 926.859 276.043 Q923.803 278.728 918.086 278.728 Q912.368 278.728 909.289 276.043 Q906.234 273.358 906.234 268.334 Q906.234 265.024 908.132 262.733 Q910.03 260.441 913.41 259.654 M911.697 252.27 Q911.697 254.955 913.364 256.459 Q915.053 257.964 918.086 257.964 Q921.095 257.964 922.785 256.459 Q924.498 254.955 924.498 252.27 Q924.498 249.585 922.785 248.08 Q921.095 246.575 918.086 246.575 Q915.053 246.575 913.364 248.08 Q911.697 249.585 911.697 252.27 Z" fill="#000000" fill-rule="nonzero" fill-opacity="1" /></svg>
