<?xml version="1.0" encoding="utf-8"?>
<svg xmlns="http://www.w3.org/2000/svg" xmlns:xlink="http://www.w3.org/1999/xlink" width="672" height="480" viewBox="0 0 2688 1920">
<defs>
  <clipPath id="clip740">
    <rect x="0" y="0" width="2688" height="1920"/>
  </clipPath>
</defs>
<path clip-path="url(#clip740)" d="M0 1920 L2688 1920 L2688 0 L0 0  Z" fill="#ffffff" fill-rule="evenodd" fill-opacity="1"/>
<defs>
  <clipPath id="clip741">
    <rect x="537" y="0" width="1883" height="1883"/>
  </clipPath>
</defs>
<path clip-path="url(#clip740)" d="M216.487 1787.62 L2640.76 1787.62 L2640.76 47.2441 L216.487 47.2441  Z" fill="#ffffff" fill-rule="evenodd" fill-opacity="1"/>
<defs>
  <clipPath id="clip742">
    <rect x="216" y="47" width="2425" height="1741"/>
  </clipPath>
</defs>
<polyline clip-path="url(#clip742)" style="stroke:#000000; stroke-linecap:round; stroke-linejoin:round; stroke-width:2; stroke-opacity:0.1; fill:none" points="1142.74,1787.62 1142.74,47.2441 "/>
<polyline clip-path="url(#clip742)" style="stroke:#000000; stroke-linecap:round; stroke-linejoin:round; stroke-width:2; stroke-opacity:0.1; fill:none" points="2572.14,1787.62 2572.14,47.2441 "/>
<polyline clip-path="url(#clip740)" style="stroke:#000000; stroke-linecap:round; stroke-linejoin:round; stroke-width:4; stroke-opacity:1; fill:none" points="216.487,1787.62 2640.76,1787.62 "/>
<polyline clip-path="url(#clip740)" style="stroke:#000000; stroke-linecap:round; stroke-linejoin:round; stroke-width:4; stroke-opacity:1; fill:none" points="1142.74,1787.62 1142.74,1768.72 "/>
<polyline clip-path="url(#clip740)" style="stroke:#000000; stroke-linecap:round; stroke-linejoin:round; stroke-width:4; stroke-opacity:1; fill:none" points="2572.14,1787.62 2572.14,1768.72 "/>
<path clip-path="url(#clip740)" d="M1092.76 1864.05 L1100.4 1864.05 L1100.4 1837.68 L1092.09 1839.35 L1092.09 1835.09 L1100.35 1833.42 L1105.03 1833.42 L1105.03 1864.05 L1112.67 1864.05 L1112.67 1867.98 L1092.76 1867.98 L1092.76 1864.05 Z" fill="#000000" fill-rule="nonzero" fill-opacity="1" /><path clip-path="url(#clip740)" d="M1132.11 1836.5 Q1128.5 1836.5 1126.67 1840.07 Q1124.87 1843.61 1124.87 1850.74 Q1124.87 1857.84 1126.67 1861.41 Q1128.5 1864.95 1132.11 1864.95 Q1135.75 1864.95 1137.55 1861.41 Q1139.38 1857.84 1139.38 1850.74 Q1139.38 1843.61 1137.55 1840.07 Q1135.75 1836.5 1132.11 1836.5 M1132.11 1832.8 Q1137.92 1832.8 1140.98 1837.4 Q1144.06 1841.99 1144.06 1850.74 Q1144.06 1859.46 1140.98 1864.07 Q1137.92 1868.65 1132.11 1868.65 Q1126.3 1868.65 1123.23 1864.07 Q1120.17 1859.46 1120.17 1850.74 Q1120.17 1841.99 1123.23 1837.4 Q1126.3 1832.8 1132.11 1832.8 Z" fill="#000000" fill-rule="nonzero" fill-opacity="1" /><path clip-path="url(#clip740)" d="M1144.06 1826.9 L1168.17 1826.9 L1168.17 1830.1 L1144.06 1830.1 L1144.06 1826.9 Z" fill="#000000" fill-rule="nonzero" fill-opacity="1" /><path clip-path="url(#clip740)" d="M1176.41 1812.49 L1191.32 1812.49 L1191.32 1815.69 L1179.89 1815.69 L1179.89 1822.57 Q1180.71 1822.29 1181.54 1822.16 Q1182.37 1822.01 1183.2 1822.01 Q1187.9 1822.01 1190.65 1824.59 Q1193.39 1827.16 1193.39 1831.56 Q1193.39 1836.1 1190.57 1838.62 Q1187.75 1841.12 1182.61 1841.12 Q1180.85 1841.12 1179 1840.82 Q1177.18 1840.52 1175.22 1839.91 L1175.22 1836.1 Q1176.92 1837.02 1178.72 1837.47 Q1180.53 1837.92 1182.54 1837.92 Q1185.79 1837.92 1187.69 1836.21 Q1189.59 1834.5 1189.59 1831.56 Q1189.59 1828.63 1187.69 1826.92 Q1185.79 1825.21 1182.54 1825.21 Q1181.02 1825.21 1179.49 1825.54 Q1177.99 1825.88 1176.41 1826.6 L1176.41 1812.49 Z" fill="#000000" fill-rule="nonzero" fill-opacity="1" /><path clip-path="url(#clip740)" d="M2537.13 1864.05 L2544.77 1864.05 L2544.77 1837.68 L2536.46 1839.35 L2536.46 1835.09 L2544.72 1833.42 L2549.4 1833.42 L2549.4 1864.05 L2557.03 1864.05 L2557.03 1867.98 L2537.13 1867.98 L2537.13 1864.05 Z" fill="#000000" fill-rule="nonzero" fill-opacity="1" /><path clip-path="url(#clip740)" d="M2576.48 1836.5 Q2572.87 1836.5 2571.04 1840.07 Q2569.23 1843.61 2569.23 1850.74 Q2569.23 1857.84 2571.04 1861.41 Q2572.87 1864.95 2576.48 1864.95 Q2580.11 1864.95 2581.92 1861.41 Q2583.75 1857.84 2583.75 1850.74 Q2583.75 1843.61 2581.92 1840.07 Q2580.11 1836.5 2576.48 1836.5 M2576.48 1832.8 Q2582.29 1832.8 2585.34 1837.4 Q2588.42 1841.99 2588.42 1850.74 Q2588.42 1859.46 2585.34 1864.07 Q2582.29 1868.65 2576.48 1868.65 Q2570.67 1868.65 2567.59 1864.07 Q2564.53 1859.46 2564.53 1850.74 Q2564.53 1841.99 2567.59 1837.4 Q2570.67 1832.8 2576.48 1832.8 Z" fill="#000000" fill-rule="nonzero" fill-opacity="1" /><path clip-path="url(#clip740)" d="M2598.13 1814.99 Q2595.19 1814.99 2593.71 1817.89 Q2592.24 1820.77 2592.24 1826.56 Q2592.24 1832.33 2593.71 1835.23 Q2595.19 1838.11 2598.13 1838.11 Q2601.08 1838.11 2602.55 1835.23 Q2604.03 1832.33 2604.03 1826.56 Q2604.03 1820.77 2602.55 1817.89 Q2601.08 1814.99 2598.13 1814.99 M2598.13 1811.98 Q2602.85 1811.98 2605.33 1815.73 Q2607.83 1819.45 2607.83 1826.56 Q2607.83 1833.65 2605.33 1837.39 Q2602.85 1841.12 2598.13 1841.12 Q2593.41 1841.12 2590.91 1837.39 Q2588.42 1833.65 2588.42 1826.56 Q2588.42 1819.45 2590.91 1815.73 Q2593.41 1811.98 2598.13 1811.98 Z" fill="#000000" fill-rule="nonzero" fill-opacity="1" /><polyline clip-path="url(#clip742)" style="stroke:#000000; stroke-linecap:round; stroke-linejoin:round; stroke-width:2; stroke-opacity:0.1; fill:none" points="216.487,1104.15 2640.76,1104.15 "/>
<polyline clip-path="url(#clip742)" style="stroke:#000000; stroke-linecap:round; stroke-linejoin:round; stroke-width:2; stroke-opacity:0.1; fill:none" points="216.487,96.5 2640.76,96.5 "/>
<polyline clip-path="url(#clip740)" style="stroke:#000000; stroke-linecap:round; stroke-linejoin:round; stroke-width:4; stroke-opacity:1; fill:none" points="216.487,1787.62 216.487,47.2441 "/>
<polyline clip-path="url(#clip740)" style="stroke:#000000; stroke-linecap:round; stroke-linejoin:round; stroke-width:4; stroke-opacity:1; fill:none" points="216.487,1104.15 235.385,1104.15 "/>
<polyline clip-path="url(#clip740)" style="stroke:#000000; stroke-linecap:round; stroke-linejoin:round; stroke-width:4; stroke-opacity:1; fill:none" points="216.487,96.5 235.385,96.5 "/>
<path clip-path="url(#clip740)" d="M50.2234 1123.94 L57.8623 1123.94 L57.8623 1097.57 L49.5521 1099.24 L49.5521 1094.98 L57.816 1093.31 L62.4919 1093.31 L62.4919 1123.94 L70.1307 1123.94 L70.1307 1127.87 L50.2234 1127.87 L50.2234 1123.94 Z" fill="#000000" fill-rule="nonzero" fill-opacity="1" /><path clip-path="url(#clip740)" d="M89.5751 1096.39 Q85.964 1096.39 84.1353 1099.96 Q82.3297 1103.5 82.3297 1110.63 Q82.3297 1117.74 84.1353 1121.3 Q85.964 1124.84 89.5751 1124.84 Q93.2093 1124.84 95.0148 1121.3 Q96.8435 1117.74 96.8435 1110.63 Q96.8435 1103.5 95.0148 1099.96 Q93.2093 1096.39 89.5751 1096.39 M89.5751 1092.69 Q95.3852 1092.69 98.4408 1097.3 Q101.519 1101.88 101.519 1110.63 Q101.519 1119.36 98.4408 1123.96 Q95.3852 1128.55 89.5751 1128.55 Q83.7649 1128.55 80.6862 1123.96 Q77.6307 1119.36 77.6307 1110.63 Q77.6307 1101.88 80.6862 1097.3 Q83.7649 1092.69 89.5751 1092.69 Z" fill="#000000" fill-rule="nonzero" fill-opacity="1" /><path clip-path="url(#clip740)" d="M101.519 1086.79 L125.631 1086.79 L125.631 1089.99 L101.519 1089.99 L101.519 1086.79 Z" fill="#000000" fill-rule="nonzero" fill-opacity="1" /><path clip-path="url(#clip740)" d="M134.489 1097.27 L140.696 1097.27 L140.696 1075.85 L133.944 1077.2 L133.944 1073.74 L140.658 1072.38 L144.458 1072.38 L144.458 1097.27 L150.664 1097.27 L150.664 1100.46 L134.489 1100.46 L134.489 1097.27 Z" fill="#000000" fill-rule="nonzero" fill-opacity="1" /><path clip-path="url(#clip740)" d="M166.463 1074.89 Q163.529 1074.89 162.043 1077.78 Q160.576 1080.66 160.576 1086.45 Q160.576 1092.23 162.043 1095.12 Q163.529 1098 166.463 1098 Q169.415 1098 170.882 1095.12 Q172.368 1092.23 172.368 1086.45 Q172.368 1080.66 170.882 1077.78 Q169.415 1074.89 166.463 1074.89 M166.463 1071.88 Q171.183 1071.88 173.666 1075.62 Q176.167 1079.34 176.167 1086.45 Q176.167 1093.54 173.666 1097.29 Q171.183 1101.01 166.463 1101.01 Q161.742 1101.01 159.24 1097.29 Q156.758 1093.54 156.758 1086.45 Q156.758 1079.34 159.24 1075.62 Q161.742 1071.88 166.463 1071.88 Z" fill="#000000" fill-rule="nonzero" fill-opacity="1" /><path clip-path="url(#clip740)" d="M105.462 116.292 L113.101 116.292 L113.101 89.9268 L104.791 91.5935 L104.791 87.3342 L113.054 85.6676 L117.73 85.6676 L117.73 116.292 L125.369 116.292 L125.369 120.228 L105.462 120.228 L105.462 116.292 Z" fill="#000000" fill-rule="nonzero" fill-opacity="1" /><path clip-path="url(#clip740)" d="M144.813 88.7463 Q141.202 88.7463 139.374 92.3111 Q137.568 95.8527 137.568 102.982 Q137.568 110.089 139.374 113.654 Q141.202 117.195 144.813 117.195 Q148.448 117.195 150.253 113.654 Q152.082 110.089 152.082 102.982 Q152.082 95.8527 150.253 92.3111 Q148.448 88.7463 144.813 88.7463 M144.813 85.0426 Q150.624 85.0426 153.679 89.649 Q156.758 94.2323 156.758 102.982 Q156.758 111.709 153.679 116.316 Q150.624 120.899 144.813 120.899 Q139.003 120.899 135.925 116.316 Q132.869 111.709 132.869 102.982 Q132.869 94.2323 135.925 89.649 Q139.003 85.0426 144.813 85.0426 Z" fill="#000000" fill-rule="nonzero" fill-opacity="1" /><path clip-path="url(#clip740)" d="M166.463 67.2386 Q163.529 67.2386 162.043 70.135 Q160.576 73.0126 160.576 78.8054 Q160.576 84.5794 162.043 87.4758 Q163.529 90.3534 166.463 90.3534 Q169.415 90.3534 170.882 87.4758 Q172.368 84.5794 172.368 78.8054 Q172.368 73.0126 170.882 70.135 Q169.415 67.2386 166.463 67.2386 M166.463 64.2294 Q171.183 64.2294 173.666 67.9721 Q176.167 71.6961 176.167 78.8054 Q176.167 85.8959 173.666 89.6387 Q171.183 93.3626 166.463 93.3626 Q161.742 93.3626 159.24 89.6387 Q156.758 85.8959 156.758 78.8054 Q156.758 71.6961 159.24 67.9721 Q161.742 64.2294 166.463 64.2294 Z" fill="#000000" fill-rule="nonzero" fill-opacity="1" /><polyline clip-path="url(#clip742)" style="stroke:#add8e6; stroke-linecap:round; stroke-linejoin:round; stroke-width:12; stroke-opacity:1; fill:none" points="285.099,1686.42 307.969,1656.08 330.84,1734.49 353.71,1686.42 376.581,1686.42 399.451,1649.34 422.322,1643.49 445.192,1625.75 468.063,1610.51 490.933,1603.4 513.803,1587.13 536.674,1568.89 559.544,1553.18 582.415,1540.59 605.285,1524.62 628.156,1508.47 651.026,1491.83 673.897,1475.47 696.767,1459.33 719.638,1443.35 742.508,1427.51 765.378,1411.25 788.249,1395.24 811.119,1379.1 833.99,1363.02 856.86,1346.86 879.731,1330.73 902.601,1314.63 925.472,1298.49 948.342,1282.37 971.213,1266.25 994.083,1250.13 1016.95,1234.01 1039.82,1217.89 1062.69,1201.76 1085.56,1185.64 1108.44,1169.52 1131.31,1153.4 1154.18,1137.27 1177.05,1121.15 1199.92,1105.03 1222.79,1088.91 1245.66,1072.79 1268.53,1056.66 1291.4,1040.54 1314.27,1024.42 1337.14,1008.3 1360.01,992.175 1382.88,976.052 1405.75,959.93 1428.62,943.808 1451.49,927.686 1474.36,911.564 1497.23,895.442 1520.1,879.321 1542.97,863.199 1565.84,847.077 1588.71,830.956 1611.59,814.835 1634.46,798.714 1657.33,782.594 1680.2,766.473 1703.07,750.354 1725.94,734.234 1748.81,718.116 1771.68,701.998 1794.55,685.881 1817.42,669.765 1840.29,653.651 1863.16,637.538 1886.03,621.427 1908.9,605.319 1931.77,589.213 1954.64,573.111 1977.51,557.013 2000.38,540.921 2023.25,524.835 2046.12,508.757 2068.99,492.688 2091.86,476.632 2114.74,460.59 2137.61,444.567 2160.48,428.567 2183.35,412.597 2206.22,396.665 2229.09,380.781 2251.96,364.959 2274.83,349.22 2297.7,333.587 2320.57,318.097 2343.44,302.795 2366.31,287.747 2389.18,273.039 2412.05,258.789 2434.92,245.155 2457.79,232.344 2480.66,220.624 2503.53,210.334 2526.4,201.895 2549.27,195.838 2572.14,192.888 "/>
<polyline clip-path="url(#clip742)" style="stroke:#000000; stroke-linecap:round; stroke-linejoin:round; stroke-width:8; stroke-opacity:1; fill:none" stroke-dasharray="32, 20" points="285.099,1708.74 307.969,1692.61 330.84,1676.49 353.71,1660.37 376.581,1644.25 399.451,1628.12 422.322,1612 445.192,1595.88 468.063,1579.76 490.933,1563.63 513.803,1547.51 536.674,1531.39 559.544,1515.27 582.415,1499.14 605.285,1483.02 628.156,1466.9 651.026,1450.78 673.897,1434.66 696.767,1418.53 719.638,1402.41 742.508,1386.29 765.378,1370.17 788.249,1354.04 811.119,1337.92 833.99,1321.8 856.86,1305.68 879.731,1289.55 902.601,1273.43 925.472,1257.31 948.342,1241.19 971.213,1225.06 994.083,1208.94 1016.95,1192.82 1039.82,1176.7 1062.69,1160.58 1085.56,1144.45 1108.44,1128.33 1131.31,1112.21 1154.18,1096.09 1177.05,1079.96 1199.92,1063.84 1222.79,1047.72 1245.66,1031.6 1268.53,1015.47 1291.4,999.352 1314.27,983.23 1337.14,967.107 1360.01,950.985 1382.88,934.863 1405.75,918.74 1428.62,902.618 1451.49,886.495 1474.36,870.373 1497.23,854.251 1520.1,838.128 1542.97,822.006 1565.84,805.884 1588.71,789.761 1611.59,773.639 1634.46,757.517 1657.33,741.394 1680.2,725.272 1703.07,709.15 1725.94,693.027 1748.81,676.905 1771.68,660.782 1794.55,644.66 1817.42,628.538 1840.29,612.415 1863.16,596.293 1886.03,580.171 1908.9,564.048 1931.77,547.926 1954.64,531.804 1977.51,515.681 2000.38,499.559 2023.25,483.437 2046.12,467.314 2068.99,451.192 2091.86,435.069 2114.74,418.947 2137.61,402.825 2160.48,386.702 2183.35,370.58 2206.22,354.458 2229.09,338.335 2251.96,322.213 2274.83,306.091 2297.7,289.968 2320.57,273.846 2343.44,257.724 2366.31,241.601 2389.18,225.479 2412.05,209.356 2434.92,193.234 2457.79,177.112 2480.66,160.989 2503.53,144.867 2526.4,128.745 2549.27,112.622 2572.14,96.5 "/>
<polyline clip-path="url(#clip742)" style="stroke:#0000ff; stroke-linecap:round; stroke-linejoin:round; stroke-width:8; stroke-opacity:1; fill:none" stroke-dasharray="4, 8" points="285.099,1738.36 307.969,1722.48 330.84,1706.59 353.71,1690.71 376.581,1674.83 399.451,1658.94 422.322,1643.06 445.192,1627.17 468.063,1611.29 490.933,1595.41 513.803,1579.52 536.674,1563.64 559.544,1547.75 582.415,1531.87 605.285,1515.99 628.156,1500.1 651.026,1484.22 673.897,1468.33 696.767,1452.45 719.638,1436.57 742.508,1420.68 765.378,1404.8 788.249,1388.91 811.119,1373.03 833.99,1357.15 856.86,1341.26 879.731,1325.38 902.601,1309.49 925.472,1293.61 948.342,1277.73 971.213,1261.84 994.083,1245.96 1016.95,1230.07 1039.82,1214.19 1062.69,1198.31 1085.56,1182.42 1108.44,1166.54 1131.31,1150.65 1154.18,1134.77 1177.05,1118.89 1199.92,1103 1222.79,1087.12 1245.66,1071.23 1268.53,1055.35 1291.4,1039.47 1314.27,1023.58 1337.14,1007.7 1360.01,991.815 1382.88,975.931 1405.75,960.047 1428.62,944.163 1451.49,928.279 1474.36,912.395 1497.23,896.511 1520.1,880.626 1542.97,864.742 1565.84,848.858 1588.71,832.974 1611.59,817.09 1634.46,801.206 1657.33,785.322 1680.2,769.438 1703.07,753.554 1725.94,737.67 1748.81,721.786 1771.68,705.902 1794.55,690.018 1817.42,674.134 1840.29,658.25 1863.16,642.366 1886.03,626.482 1908.9,610.598 1931.77,594.714 1954.64,578.83 1977.51,562.946 2000.38,547.062 2023.25,531.178 2046.12,515.294 2068.99,499.41 2091.86,483.526 2114.74,467.642 2137.61,451.758 2160.48,435.874 2183.35,419.99 2206.22,404.106 2229.09,388.222 2251.96,372.338 2274.83,356.454 2297.7,340.57 2320.57,324.686 2343.44,308.802 2366.31,292.918 2389.18,277.034 2412.05,261.15 2434.92,245.266 2457.79,229.382 2480.66,213.498 2503.53,197.614 2526.4,181.73 2549.27,165.846 2572.14,149.962 "/>
<path clip-path="url(#clip740)" d="M297.296 312.617 L957.453 312.617 L957.453 105.257 L297.296 105.257  Z" fill="#ffffff" fill-rule="evenodd" fill-opacity="1"/>
<polyline clip-path="url(#clip740)" style="stroke:#000000; stroke-linecap:round; stroke-linejoin:round; stroke-width:4; stroke-opacity:1; fill:none" points="297.296,312.617 957.453,312.617 957.453,105.257 297.296,105.257 297.296,312.617 "/>
<polyline clip-path="url(#clip740)" style="stroke:#add8e6; stroke-linecap:round; stroke-linejoin:round; stroke-width:12; stroke-opacity:1; fill:none" points="324.233,157.097 485.851,157.097 "/>
<path clip-path="url(#clip740)" d="M547.569 137.655 L546.609 145.946 Q546.539 146.696 546.422 146.93 Q546.304 147.141 545.93 147.141 Q545.649 147.141 545.485 146.977 Q545.344 146.789 545.344 146.578 Q545.344 146.461 545.368 146.157 Q545.391 145.852 545.391 145.712 Q545.602 144.26 545.602 143.159 Q545.602 141.121 544.993 140.02 Q544.384 138.896 542.815 138.381 Q541.245 137.842 538.294 137.842 L531.548 137.842 Q530.002 137.842 529.628 138.123 Q529.276 138.404 528.948 139.716 L526.067 151.263 L530.588 151.263 Q532.274 151.263 533.282 151.052 Q534.312 150.841 534.991 150.256 Q535.694 149.647 536.069 148.827 Q536.467 148.007 536.865 146.532 Q536.982 146.04 537.099 145.852 Q537.24 145.665 537.544 145.665 Q537.779 145.665 537.943 145.829 Q538.107 145.969 538.107 146.18 L535.366 157.4 Q535.226 157.962 535.085 158.173 Q534.945 158.36 534.664 158.36 Q534.359 158.36 534.195 158.196 Q534.031 158.032 534.031 157.845 Q534.031 157.657 534.172 157.306 Q534.523 155.783 534.523 154.964 Q534.523 154.495 534.476 154.261 Q534.453 154.027 534.242 153.699 Q534.055 153.348 533.633 153.184 Q533.211 153.02 532.415 152.903 Q531.619 152.762 530.424 152.762 L525.693 152.762 L522.414 165.855 Q522.179 166.722 522.179 166.956 Q522.179 167.214 522.296 167.307 Q522.437 167.378 522.812 167.424 Q523.233 167.495 523.866 167.495 L530.869 167.495 Q532.415 167.495 533.656 167.354 Q534.898 167.214 535.928 166.862 Q536.982 166.511 537.779 166.113 Q538.575 165.715 539.325 164.989 Q540.074 164.239 540.589 163.583 Q541.128 162.904 541.761 161.756 Q542.393 160.609 542.838 159.672 Q543.283 158.711 543.962 157.165 Q544.15 156.603 544.595 156.603 Q544.852 156.603 544.993 156.744 Q545.133 156.861 545.157 156.978 L545.157 157.119 Q545.016 157.564 544.923 157.798 L540.519 168.151 Q540.261 168.736 540.051 168.853 Q539.84 168.97 539.02 168.97 L514.122 168.97 Q513.56 168.97 513.326 168.947 Q513.115 168.923 512.951 168.806 Q512.787 168.666 512.787 168.385 Q512.787 167.94 512.974 167.752 Q513.162 167.542 513.373 167.518 Q513.583 167.495 514.122 167.495 Q515.293 167.495 515.996 167.424 Q516.699 167.354 517.144 167.26 Q517.612 167.143 517.846 166.815 Q518.104 166.488 518.221 166.206 Q518.338 165.902 518.502 165.223 L524.826 139.856 Q525.06 138.99 525.06 138.709 Q525.06 138.404 524.85 138.217 Q524.662 138.029 524.147 137.959 Q523.632 137.865 523.21 137.865 Q522.812 137.842 521.945 137.842 Q521.383 137.842 521.149 137.818 Q520.938 137.795 520.774 137.678 Q520.61 137.561 520.61 137.303 Q520.61 136.647 520.891 136.507 Q521.196 136.343 522.039 136.343 L546.258 136.343 Q547.218 136.343 547.429 136.554 Q547.663 136.741 547.569 137.655 Z" fill="#000000" fill-rule="nonzero" fill-opacity="1" /><path clip-path="url(#clip740)" d="M552.449 156.978 Q552.449 148.874 555.471 142.339 Q556.759 139.599 558.563 137.303 Q560.366 135.008 561.561 134.001 Q562.755 132.993 563.083 132.993 Q563.552 132.993 563.575 133.462 Q563.575 133.696 562.943 134.282 Q555.213 142.152 555.237 156.978 Q555.237 171.851 562.755 179.417 Q563.575 180.237 563.575 180.494 Q563.575 180.963 563.083 180.963 Q562.755 180.963 561.608 180.002 Q560.46 179.042 558.68 176.84 Q556.9 174.639 555.611 171.945 Q552.449 165.41 552.449 156.978 Z" fill="#000000" fill-rule="nonzero" fill-opacity="1" /><path clip-path="url(#clip740)" d="M581.954 148.827 Q581.954 149.483 581.65 149.647 Q581.345 149.787 580.502 149.787 L576.005 149.787 L572.445 163.935 Q572.164 165.176 572.164 166.23 Q572.164 167.401 572.515 167.916 Q572.89 168.432 573.663 168.432 Q575.185 168.432 576.825 167.05 Q578.488 165.668 579.893 162.295 Q580.081 161.85 580.174 161.756 Q580.291 161.639 580.596 161.639 Q581.181 161.639 581.181 162.108 Q581.181 162.272 580.854 163.021 Q580.549 163.771 579.87 164.871 Q579.214 165.972 578.347 167.003 Q577.504 168.033 576.216 168.783 Q574.928 169.509 573.546 169.509 Q571.602 169.509 570.36 168.268 Q569.142 167.026 569.142 165.082 Q569.142 164.45 569.634 162.435 Q570.126 160.398 572.796 149.787 L568.557 149.787 Q567.971 149.787 567.737 149.764 Q567.526 149.741 567.362 149.623 Q567.222 149.483 567.222 149.202 Q567.222 148.757 567.409 148.569 Q567.596 148.359 567.831 148.335 Q568.088 148.288 568.674 148.288 L573.171 148.288 L575.045 140.676 Q575.232 139.927 575.701 139.505 Q576.193 139.06 576.474 139.013 Q576.755 138.943 576.965 138.943 Q577.598 138.943 577.973 139.294 Q578.347 139.622 578.347 140.231 Q578.347 140.559 576.38 148.288 L580.596 148.288 Q581.135 148.288 581.345 148.312 Q581.58 148.335 581.767 148.452 Q581.954 148.569 581.954 148.827 Z" fill="#000000" fill-rule="nonzero" fill-opacity="1" /><path clip-path="url(#clip740)" d="M585.71 180.494 Q585.71 180.26 586.319 179.674 Q594.048 171.804 594.048 156.978 Q594.048 142.105 586.624 134.586 Q585.71 133.72 585.71 133.462 Q585.71 132.993 586.179 132.993 Q586.506 132.993 587.654 133.954 Q588.825 134.914 590.582 137.116 Q592.362 139.318 593.674 142.011 Q596.836 148.546 596.836 156.978 Q596.836 165.082 593.814 171.617 Q592.526 174.357 590.723 176.653 Q588.919 178.948 587.724 179.955 Q586.53 180.963 586.179 180.963 Q585.71 180.963 585.71 180.494 Z" fill="#000000" fill-rule="nonzero" fill-opacity="1" /><polyline clip-path="url(#clip740)" style="stroke:#000000; stroke-linecap:round; stroke-linejoin:round; stroke-width:8; stroke-opacity:1; fill:none" stroke-dasharray="32, 20" points="324.233,208.937 485.851,208.937 "/>
<path clip-path="url(#clip740)" d="M531.213 201.055 L531.213 205.082 Q529.407 204.157 527.463 203.694 Q525.518 203.231 523.435 203.231 Q520.264 203.231 518.667 204.203 Q517.092 205.175 517.092 207.119 Q517.092 208.601 518.227 209.457 Q519.361 210.291 522.787 211.055 L524.245 211.379 Q528.782 212.351 530.68 214.133 Q532.602 215.893 532.602 219.064 Q532.602 222.675 529.731 224.781 Q526.884 226.888 521.884 226.888 Q519.801 226.888 517.532 226.471 Q515.287 226.078 512.787 225.268 L512.787 220.869 Q515.148 222.096 517.44 222.721 Q519.731 223.323 521.977 223.323 Q524.986 223.323 526.606 222.305 Q528.227 221.263 528.227 219.388 Q528.227 217.652 527.046 216.726 Q525.889 215.8 521.93 214.943 L520.449 214.596 Q516.491 213.763 514.731 212.05 Q512.972 210.314 512.972 207.305 Q512.972 203.647 515.565 201.657 Q518.157 199.666 522.926 199.666 Q525.287 199.666 527.37 200.013 Q529.454 200.36 531.213 201.055 Z" fill="#000000" fill-rule="nonzero" fill-opacity="1" /><path clip-path="url(#clip740)" d="M539.384 190.198 L543.643 190.198 L543.643 226.217 L539.384 226.217 L539.384 190.198 Z" fill="#000000" fill-rule="nonzero" fill-opacity="1" /><path clip-path="url(#clip740)" d="M562.602 203.277 Q559.176 203.277 557.185 205.962 Q555.194 208.624 555.194 213.277 Q555.194 217.93 557.162 220.615 Q559.152 223.277 562.602 223.277 Q566.004 223.277 567.995 220.592 Q569.986 217.906 569.986 213.277 Q569.986 208.67 567.995 205.985 Q566.004 203.277 562.602 203.277 M562.602 199.666 Q568.157 199.666 571.328 203.277 Q574.5 206.888 574.5 213.277 Q574.5 219.643 571.328 223.277 Q568.157 226.888 562.602 226.888 Q557.023 226.888 553.852 223.277 Q550.703 219.643 550.703 213.277 Q550.703 206.888 553.852 203.277 Q557.023 199.666 562.602 199.666 Z" fill="#000000" fill-rule="nonzero" fill-opacity="1" /><path clip-path="url(#clip740)" d="M585.68 222.328 L585.68 236.078 L581.398 236.078 L581.398 200.291 L585.68 200.291 L585.68 204.226 Q587.023 201.911 589.06 200.8 Q591.12 199.666 593.967 199.666 Q598.689 199.666 601.629 203.416 Q604.592 207.166 604.592 213.277 Q604.592 219.388 601.629 223.138 Q598.689 226.888 593.967 226.888 Q591.12 226.888 589.06 225.777 Q587.023 224.643 585.68 222.328 M600.171 213.277 Q600.171 208.578 598.226 205.916 Q596.305 203.231 592.925 203.231 Q589.546 203.231 587.601 205.916 Q585.68 208.578 585.68 213.277 Q585.68 217.976 587.601 220.661 Q589.546 223.323 592.925 223.323 Q596.305 223.323 598.226 220.661 Q600.171 217.976 600.171 213.277 Z" fill="#000000" fill-rule="nonzero" fill-opacity="1" /><path clip-path="url(#clip740)" d="M633.828 212.189 L633.828 214.272 L614.245 214.272 Q614.523 218.67 616.884 220.985 Q619.268 223.277 623.504 223.277 Q625.958 223.277 628.249 222.675 Q630.564 222.073 632.833 220.869 L632.833 224.897 Q630.541 225.869 628.134 226.379 Q625.726 226.888 623.249 226.888 Q617.046 226.888 613.411 223.277 Q609.8 219.666 609.8 213.508 Q609.8 207.143 613.226 203.416 Q616.675 199.666 622.509 199.666 Q627.74 199.666 630.772 203.045 Q633.828 206.402 633.828 212.189 M629.569 210.939 Q629.522 207.444 627.601 205.36 Q625.703 203.277 622.555 203.277 Q618.99 203.277 616.837 205.291 Q614.708 207.305 614.384 210.962 L629.569 210.939 Z" fill="#000000" fill-rule="nonzero" fill-opacity="1" /><path clip-path="url(#clip740)" d="M672.416 201.055 L672.416 205.082 Q670.61 204.157 668.666 203.694 Q666.721 203.231 664.638 203.231 Q661.467 203.231 659.869 204.203 Q658.295 205.175 658.295 207.119 Q658.295 208.601 659.43 209.457 Q660.564 210.291 663.99 211.055 L665.448 211.379 Q669.985 212.351 671.883 214.133 Q673.805 215.893 673.805 219.064 Q673.805 222.675 670.934 224.781 Q668.087 226.888 663.087 226.888 Q661.004 226.888 658.735 226.471 Q656.49 226.078 653.99 225.268 L653.99 220.869 Q656.351 222.096 658.643 222.721 Q660.934 223.323 663.18 223.323 Q666.189 223.323 667.809 222.305 Q669.43 221.263 669.43 219.388 Q669.43 217.652 668.249 216.726 Q667.092 215.8 663.133 214.943 L661.652 214.596 Q657.694 213.763 655.934 212.05 Q654.175 210.314 654.175 207.305 Q654.175 203.647 656.768 201.657 Q659.36 199.666 664.129 199.666 Q666.49 199.666 668.573 200.013 Q670.656 200.36 672.416 201.055 Z" fill="#000000" fill-rule="nonzero" fill-opacity="1" /><path clip-path="url(#clip740)" d="M681.143 204.689 L710.818 204.689 L710.818 208.578 L681.143 208.578 L681.143 204.689 M681.143 214.133 L710.818 214.133 L710.818 218.068 L681.143 218.068 L681.143 214.133 Z" fill="#000000" fill-rule="nonzero" fill-opacity="1" /><path clip-path="url(#clip740)" d="M724.939 222.281 L741.258 222.281 L741.258 226.217 L719.314 226.217 L719.314 222.281 Q721.976 219.527 726.559 214.897 Q731.165 210.244 732.346 208.902 Q734.591 206.379 735.471 204.643 Q736.374 202.883 736.374 201.194 Q736.374 198.439 734.429 196.703 Q732.508 194.967 729.406 194.967 Q727.207 194.967 724.753 195.731 Q722.323 196.495 719.545 198.045 L719.545 193.323 Q722.369 192.189 724.823 191.61 Q727.277 191.032 729.314 191.032 Q734.684 191.032 737.878 193.717 Q741.073 196.402 741.073 200.893 Q741.073 203.022 740.263 204.944 Q739.476 206.842 737.369 209.434 Q736.79 210.106 733.689 213.323 Q730.587 216.518 724.939 222.281 Z" fill="#000000" fill-rule="nonzero" fill-opacity="1" /><path clip-path="url(#clip740)" d="M751.073 220.337 L755.957 220.337 L755.957 226.217 L751.073 226.217 L751.073 220.337 Z" fill="#000000" fill-rule="nonzero" fill-opacity="1" /><path clip-path="url(#clip740)" d="M776.142 194.735 Q772.531 194.735 770.702 198.3 Q768.897 201.842 768.897 208.971 Q768.897 216.078 770.702 219.643 Q772.531 223.184 776.142 223.184 Q779.776 223.184 781.582 219.643 Q783.411 216.078 783.411 208.971 Q783.411 201.842 781.582 198.3 Q779.776 194.735 776.142 194.735 M776.142 191.032 Q781.952 191.032 785.008 195.638 Q788.086 200.221 788.086 208.971 Q788.086 217.698 785.008 222.305 Q781.952 226.888 776.142 226.888 Q770.332 226.888 767.253 222.305 Q764.198 217.698 764.198 208.971 Q764.198 200.221 767.253 195.638 Q770.332 191.032 776.142 191.032 Z" fill="#000000" fill-rule="nonzero" fill-opacity="1" /><polyline clip-path="url(#clip740)" style="stroke:#0000ff; stroke-linecap:round; stroke-linejoin:round; stroke-width:8; stroke-opacity:1; fill:none" stroke-dasharray="4, 8" points="324.233,260.777 485.851,260.777 "/>
<path clip-path="url(#clip740)" d="M531.56 265.117 Q531.56 260.418 529.616 257.756 Q527.694 255.071 524.315 255.071 Q520.935 255.071 518.991 257.756 Q517.069 260.418 517.069 265.117 Q517.069 269.816 518.991 272.501 Q520.935 275.163 524.315 275.163 Q527.694 275.163 529.616 272.501 Q531.56 269.816 531.56 265.117 M517.069 256.066 Q518.412 253.751 520.449 252.64 Q522.509 251.506 525.356 251.506 Q530.079 251.506 533.018 255.256 Q535.981 259.006 535.981 265.117 Q535.981 271.228 533.018 274.978 Q530.079 278.728 525.356 278.728 Q522.509 278.728 520.449 277.617 Q518.412 276.483 517.069 274.168 L517.069 278.057 L512.787 278.057 L512.787 242.038 L517.069 242.038 L517.069 256.066 Z" fill="#000000" fill-rule="nonzero" fill-opacity="1" /><path clip-path="url(#clip740)" d="M565.217 264.029 L565.217 266.112 L545.634 266.112 Q545.912 270.51 548.273 272.825 Q550.657 275.117 554.893 275.117 Q557.347 275.117 559.639 274.515 Q561.953 273.913 564.222 272.709 L564.222 276.737 Q561.93 277.709 559.523 278.219 Q557.115 278.728 554.639 278.728 Q548.435 278.728 544.801 275.117 Q541.19 271.506 541.19 265.348 Q541.19 258.983 544.615 255.256 Q548.065 251.506 553.898 251.506 Q559.129 251.506 562.162 254.885 Q565.217 258.242 565.217 264.029 M560.958 262.779 Q560.912 259.284 558.99 257.2 Q557.092 255.117 553.944 255.117 Q550.379 255.117 548.227 257.131 Q546.097 259.145 545.773 262.802 L560.958 262.779 Z" fill="#000000" fill-rule="nonzero" fill-opacity="1" /><path clip-path="url(#clip740)" d="M588.736 252.895 L588.736 256.922 Q586.93 255.997 584.986 255.534 Q583.041 255.071 580.958 255.071 Q577.787 255.071 576.189 256.043 Q574.615 257.015 574.615 258.959 Q574.615 260.441 575.75 261.297 Q576.884 262.131 580.31 262.895 L581.768 263.219 Q586.305 264.191 588.203 265.973 Q590.125 267.733 590.125 270.904 Q590.125 274.515 587.254 276.621 Q584.407 278.728 579.407 278.728 Q577.324 278.728 575.055 278.311 Q572.81 277.918 570.31 277.108 L570.31 272.709 Q572.671 273.936 574.963 274.561 Q577.254 275.163 579.5 275.163 Q582.509 275.163 584.129 274.145 Q585.75 273.103 585.75 271.228 Q585.75 269.492 584.569 268.566 Q583.412 267.64 579.453 266.783 L577.972 266.436 Q574.013 265.603 572.254 263.89 Q570.495 262.154 570.495 259.145 Q570.495 255.487 573.088 253.497 Q575.68 251.506 580.449 251.506 Q582.81 251.506 584.893 251.853 Q586.976 252.2 588.736 252.895 Z" fill="#000000" fill-rule="nonzero" fill-opacity="1" /><path clip-path="url(#clip740)" d="M601.12 244.77 L601.12 252.131 L609.893 252.131 L609.893 255.441 L601.12 255.441 L601.12 269.515 Q601.12 272.686 601.976 273.589 Q602.856 274.492 605.518 274.492 L609.893 274.492 L609.893 278.057 L605.518 278.057 Q600.587 278.057 598.712 276.228 Q596.837 274.376 596.837 269.515 L596.837 255.441 L593.712 255.441 L593.712 252.131 L596.837 252.131 L596.837 244.77 L601.12 244.77 Z" fill="#000000" fill-rule="nonzero" fill-opacity="1" /><path clip-path="url(#clip740)" d="M647.092 252.895 L647.092 256.922 Q645.286 255.997 643.342 255.534 Q641.397 255.071 639.314 255.071 Q636.143 255.071 634.546 256.043 Q632.971 257.015 632.971 258.959 Q632.971 260.441 634.106 261.297 Q635.24 262.131 638.666 262.895 L640.124 263.219 Q644.661 264.191 646.559 265.973 Q648.481 267.733 648.481 270.904 Q648.481 274.515 645.61 276.621 Q642.763 278.728 637.763 278.728 Q635.68 278.728 633.411 278.311 Q631.166 277.918 628.666 277.108 L628.666 272.709 Q631.027 273.936 633.319 274.561 Q635.61 275.163 637.856 275.163 Q640.865 275.163 642.485 274.145 Q644.106 273.103 644.106 271.228 Q644.106 269.492 642.925 268.566 Q641.768 267.64 637.809 266.783 L636.328 266.436 Q632.37 265.603 630.61 263.89 Q628.851 262.154 628.851 259.145 Q628.851 255.487 631.444 253.497 Q634.036 251.506 638.805 251.506 Q641.166 251.506 643.249 251.853 Q645.333 252.2 647.092 252.895 Z" fill="#000000" fill-rule="nonzero" fill-opacity="1" /><path clip-path="url(#clip740)" d="M655.263 242.038 L659.522 242.038 L659.522 278.057 L655.263 278.057 L655.263 242.038 Z" fill="#000000" fill-rule="nonzero" fill-opacity="1" /><path clip-path="url(#clip740)" d="M678.481 255.117 Q675.055 255.117 673.064 257.802 Q671.073 260.464 671.073 265.117 Q671.073 269.77 673.041 272.455 Q675.031 275.117 678.481 275.117 Q681.883 275.117 683.874 272.432 Q685.865 269.746 685.865 265.117 Q685.865 260.51 683.874 257.825 Q681.883 255.117 678.481 255.117 M678.481 251.506 Q684.036 251.506 687.207 255.117 Q690.379 258.728 690.379 265.117 Q690.379 271.483 687.207 275.117 Q684.036 278.728 678.481 278.728 Q672.902 278.728 669.731 275.117 Q666.582 271.483 666.582 265.117 Q666.582 258.728 669.731 255.117 Q672.902 251.506 678.481 251.506 Z" fill="#000000" fill-rule="nonzero" fill-opacity="1" /><path clip-path="url(#clip740)" d="M701.559 274.168 L701.559 287.918 L697.277 287.918 L697.277 252.131 L701.559 252.131 L701.559 256.066 Q702.902 253.751 704.939 252.64 Q706.999 251.506 709.846 251.506 Q714.568 251.506 717.508 255.256 Q720.471 259.006 720.471 265.117 Q720.471 271.228 717.508 274.978 Q714.568 278.728 709.846 278.728 Q706.999 278.728 704.939 277.617 Q702.902 276.483 701.559 274.168 M716.05 265.117 Q716.05 260.418 714.105 257.756 Q712.184 255.071 708.804 255.071 Q705.425 255.071 703.48 257.756 Q701.559 260.418 701.559 265.117 Q701.559 269.816 703.48 272.501 Q705.425 275.163 708.804 275.163 Q712.184 275.163 714.105 272.501 Q716.05 269.816 716.05 265.117 Z" fill="#000000" fill-rule="nonzero" fill-opacity="1" /><path clip-path="url(#clip740)" d="M749.707 264.029 L749.707 266.112 L730.124 266.112 Q730.402 270.51 732.763 272.825 Q735.147 275.117 739.383 275.117 Q741.837 275.117 744.128 274.515 Q746.443 273.913 748.712 272.709 L748.712 276.737 Q746.42 277.709 744.013 278.219 Q741.605 278.728 739.128 278.728 Q732.925 278.728 729.29 275.117 Q725.679 271.506 725.679 265.348 Q725.679 258.983 729.105 255.256 Q732.554 251.506 738.388 251.506 Q743.619 251.506 746.651 254.885 Q749.707 258.242 749.707 264.029 M745.448 262.779 Q745.401 259.284 743.48 257.2 Q741.582 255.117 738.434 255.117 Q734.869 255.117 732.716 257.131 Q730.587 259.145 730.263 262.802 L745.448 262.779 Z" fill="#000000" fill-rule="nonzero" fill-opacity="1" /><path clip-path="url(#clip740)" d="M773.179 274.121 L780.818 274.121 L780.818 247.756 L772.508 249.422 L772.508 245.163 L780.772 243.497 L785.448 243.497 L785.448 274.121 L793.086 274.121 L793.086 278.057 L773.179 278.057 L773.179 274.121 Z" fill="#000000" fill-rule="nonzero" fill-opacity="1" /><path clip-path="url(#clip740)" d="M802.531 272.177 L807.415 272.177 L807.415 278.057 L802.531 278.057 L802.531 272.177 Z" fill="#000000" fill-rule="nonzero" fill-opacity="1" /><path clip-path="url(#clip740)" d="M817.739 277.339 L817.739 273.08 Q819.498 273.913 821.304 274.353 Q823.109 274.793 824.845 274.793 Q829.475 274.793 831.906 271.691 Q834.359 268.566 834.707 262.223 Q833.364 264.214 831.304 265.279 Q829.244 266.344 826.744 266.344 Q821.558 266.344 818.526 263.219 Q815.517 260.071 815.517 254.631 Q815.517 249.307 818.665 246.089 Q821.813 242.872 827.045 242.872 Q833.04 242.872 836.188 247.478 Q839.359 252.061 839.359 260.811 Q839.359 268.983 835.47 273.867 Q831.605 278.728 825.054 278.728 Q823.295 278.728 821.489 278.381 Q819.683 278.033 817.739 277.339 M827.045 262.686 Q830.193 262.686 832.021 260.534 Q833.873 258.381 833.873 254.631 Q833.873 250.904 832.021 248.751 Q830.193 246.575 827.045 246.575 Q823.896 246.575 822.045 248.751 Q820.216 250.904 820.216 254.631 Q820.216 258.381 822.045 260.534 Q823.896 262.686 827.045 262.686 Z" fill="#000000" fill-rule="nonzero" fill-opacity="1" /><path clip-path="url(#clip740)" d="M846.581 243.497 L868.804 243.497 L868.804 245.487 L856.257 278.057 L851.373 278.057 L863.179 247.432 L846.581 247.432 L846.581 243.497 Z" fill="#000000" fill-rule="nonzero" fill-opacity="1" /><path clip-path="url(#clip740)" d="M887.924 246.575 Q884.313 246.575 882.484 250.14 Q880.678 253.682 880.678 260.811 Q880.678 267.918 882.484 271.483 Q884.313 275.024 887.924 275.024 Q891.558 275.024 893.364 271.483 Q895.192 267.918 895.192 260.811 Q895.192 253.682 893.364 250.14 Q891.558 246.575 887.924 246.575 M887.924 242.872 Q893.734 242.872 896.79 247.478 Q899.868 252.061 899.868 260.811 Q899.868 269.538 896.79 274.145 Q893.734 278.728 887.924 278.728 Q882.114 278.728 879.035 274.145 Q875.979 269.538 875.979 260.811 Q875.979 252.061 879.035 247.478 Q882.114 242.872 887.924 242.872 Z" fill="#000000" fill-rule="nonzero" fill-opacity="1" /><path clip-path="url(#clip740)" d="M920.933 247.571 L909.127 266.02 L920.933 266.02 L920.933 247.571 M919.706 243.497 L925.586 243.497 L925.586 266.02 L930.516 266.02 L930.516 269.908 L925.586 269.908 L925.586 278.057 L920.933 278.057 L920.933 269.908 L905.331 269.908 L905.331 265.395 L919.706 243.497 Z" fill="#000000" fill-rule="nonzero" fill-opacity="1" /></svg>
